<?xml version="1.0" encoding="UTF-8" standalone="no"?>
<svg
   version="1.1"
   id="Layer_1"
   x="0px"
   y="0px"
   viewBox="0 0 24 24"
   xml:space="preserve"
   width="24"
   height="24"
   xmlns="http://www.w3.org/2000/svg"
   xmlns:svg="http://www.w3.org/2000/svg"><defs
   id="defs19" />
<style
   type="text/css"
   id="style1">
	.st0{fill:none;stroke:#263238;stroke-linecap:round;stroke-miterlimit:10;}
	.st1{fill:none;stroke:#263238;stroke-linecap:round;stroke-linejoin:round;stroke-miterlimit:10;}
	.st2{fill:none;stroke:#263238;stroke-miterlimit:10;}
</style>
	<g
   id="g19"
   transform="matrix(1.2941176,0,0,1.2941176,-0.29411771,0.20588241)">
		<path
   class="st0"
   d="M 9.5,6.2"
   id="path1" />
		<line
   class="st0"
   x1="9.5"
   y1="16.5"
   x2="9.5"
   y2="8.5"
   id="line1" />
		<line
   class="st1"
   x1="9.5"
   y1="13.5"
   x2="6.5"
   y2="10.5"
   id="line2" />
		<path
   class="st2"
   d="M 5.5,9.5"
   id="path2" />
		<path
   class="st2"
   d="M 6.5,10.5"
   id="path3" />
		<line
   class="st0"
   x1="6.5"
   y1="10.5"
   x2="6.5"
   y2="8.5"
   id="line3" />
		<line
   class="st0"
   x1="6.5"
   y1="10.5"
   x2="4.5"
   y2="10.5"
   id="line4" />
		<path
   class="st1"
   d="M 9.5,7.5"
   id="path4" />
		<g
   id="g9">
			<path
   class="st1"
   d="M 10.5,12.1"
   id="path5" />
			<path
   class="st1"
   d="M 6.5,5.5"
   id="path6" />
			<path
   class="st1"
   d="M 9.5,2.5"
   id="path7" />
			<path
   class="st1"
   d="m 5.5,5.5 c -2.2,0 -4,1.8 -4,4 0,2.2 1.8,4 4,4 1,0 2,0 3,-1"
   id="path8" />
			<path
   class="st1"
   d="M 5.5,5.5"
   id="path9" />
		</g>
		<line
   class="st1"
   x1="9.5"
   y1="13.5"
   x2="12.6"
   y2="10.5"
   id="line9" />
		<path
   class="st2"
   d="M 13.5,9.5"
   id="path10" />
		<path
   class="st2"
   d="M 12.5,9.5"
   id="path11" />
		<line
   class="st0"
   x1="12.6"
   y1="10.5"
   x2="14.5"
   y2="10.5"
   id="line11" />
		<line
   class="st0"
   x1="12.6"
   y1="10.5"
   x2="14.6"
   y2="8.5"
   id="line12" />
		<g
   id="g15">
			<path
   class="st1"
   d="M 8.5,12.1"
   id="path12" />
			<path
   class="st1"
   d="M 12.5,5.5"
   id="path13" />
			<path
   class="st1"
   d="M 9.5,2.5"
   id="path14" />
			<path
   class="st1"
   d="m 13.5,5.5 c 2.2,0 4,1.8 4,4 0,2.2 -1.8,4 -4,4 -1,0 -2,0 -3,-1"
   id="path15" />
		</g>
		<path
   class="st1"
   d="m 5.5,5.5 c 0,-2.2 1.8,-4 4,-4 2.2,0 4,1.8 4,4"
   id="path16" />
		<path
   class="st0"
   d="M 9.5,16.5"
   id="path17" />
		<line
   class="st0"
   x1="6.5"
   y1="16.5"
   x2="12.5"
   y2="16.5"
   id="line17" />
		<line
   class="st1"
   x1="9.5"
   y1="8.5"
   x2="11.5"
   y2="7.5"
   id="line18" />
		<line
   class="st1"
   x1="9.5"
   y1="8.5"
   x2="8.5"
   y2="6.5"
   id="line19" />
	</g>
</svg>
