<svg width="24" height="24" viewBox="0 0 24 24" fill="none" xmlns="http://www.w3.org/2000/svg">
<path d="M10.5 4.7C10.5 3.1 9.375 1.5 7.5 1.5C5.625 1.5 4.5 3.1 4.5 4.7C3.75 4.7 1.5 5.30953 1.5 7.9C1.5 10.3 3.375 11.1 4.5 11.1C5.625 11.1 6.375 10.7 6.75 10.3H8.25C8.625 10.7 9.375 11.1 10.5 11.1C11.625 11.1 13.5 10.3 13.5 7.9C13.5 5.30953 11.25 4.7 10.5 4.7Z" fill="white"/>
<path d="M7 13.5C7 13.7761 7.22386 14 7.5 14C7.77614 14 8 13.7761 8 13.5H7ZM7.5 11.1L7.13523 11.442C7.22878 11.5418 7.35913 11.5989 7.49591 11.6C7.63268 11.6011 7.76395 11.5461 7.85912 11.4479L7.5 11.1ZM5.75 7.1C5.75 6.82386 5.52614 6.6 5.25 6.6C4.97386 6.6 4.75 6.82386 4.75 7.1H5.75ZM3.75 8.2C3.47386 8.2 3.25 8.42386 3.25 8.7C3.25 8.97614 3.47386 9.2 3.75 9.2V8.2ZM11.25 9.2C11.5261 9.2 11.75 8.97614 11.75 8.7C11.75 8.42386 11.5261 8.2 11.25 8.2V9.2ZM11.6898 7.44197C11.8786 7.24051 11.8684 6.9241 11.667 6.73523C11.4655 6.54637 11.1491 6.55657 10.9602 6.75803L11.6898 7.44197ZM5.25 13C4.97386 13 4.75 13.2239 4.75 13.5C4.75 13.7761 4.97386 14 5.25 14V13ZM9.75 14C10.0261 14 10.25 13.7761 10.25 13.5C10.25 13.2239 10.0261 13 9.75 13V14ZM9.23529 6.74118C9.47895 6.61123 9.57113 6.30836 9.44118 6.06471C9.31123 5.82105 9.00836 5.72887 8.76471 5.85882L9.23529 6.74118ZM7.20273 5.28778C7.08553 5.03775 6.78782 4.93007 6.53778 5.04727C6.28775 5.16447 6.18007 5.46218 6.29727 5.71222L7.20273 5.28778ZM8 13.5V7.1H7V13.5H8ZM7.86477 10.758L5.61477 8.35803L4.88523 9.04197L7.13523 11.442L7.86477 10.758ZM5.75 8.7V7.1H4.75V8.7H5.75ZM5.25 8.2H3.75V9.2H5.25V8.2ZM7.85912 11.4479L10.1841 9.0479L9.46588 8.3521L7.14088 10.7521L7.85912 11.4479ZM9.825 9.2H11.25V8.2H9.825V9.2ZM10.1898 9.04197L11.6898 7.44197L10.9602 6.75803L9.46023 8.35803L10.1898 9.04197ZM5.25 14H9.75V13H5.25V14ZM7.73529 7.54118L9.23529 6.74118L8.76471 5.85882L7.26471 6.65882L7.73529 7.54118ZM7.95273 6.88778L7.20273 5.28778L6.29727 5.71222L7.04727 7.31222L7.95273 6.88778Z" fill="#28292C"/>
<path d="M6.75 10.3C6 11.1 5.25 11.1 4.5 11.1C2.85 11.1 1.5 9.66 1.5 7.9C1.5 6.14 2.85 4.7 4.5 4.7C4.5 2.94 5.85 1.5 7.5 1.5C9.15 1.5 10.5 2.94 10.5 4.7C12.15 4.7 13.5 6.14 13.5 7.9C13.5 9.66 12.15 11.1 10.5 11.1C9.75 11.1 9 11.1 8.25 10.3" stroke="#28292C" stroke-miterlimit="10" stroke-linecap="round" stroke-linejoin="round"/>
<path d="M19.5 13.7C19.5 12.1 18.375 10.5 16.5 10.5C14.625 10.5 13.5 12.1 13.5 13.7C12.75 13.7 10.5 14.3095 10.5 16.9C10.5 19.3 12.375 20.1 13.5 20.1C14.625 20.1 15.375 19.7 15.75 19.3H17.25C17.625 19.7 18.375 20.1 19.5 20.1C20.625 20.1 22.5 19.3 22.5 16.9C22.5 14.3095 20.25 13.7 19.5 13.7Z" fill="white"/>
<path d="M16 22.5C16 22.7761 16.2239 23 16.5 23C16.7761 23 17 22.7761 17 22.5H16ZM16.5 20.1L16.1352 20.442C16.2288 20.5418 16.3591 20.5989 16.4959 20.6C16.6327 20.6011 16.7639 20.5461 16.8591 20.4479L16.5 20.1ZM14.75 16.1C14.75 15.8239 14.5261 15.6 14.25 15.6C13.9739 15.6 13.75 15.8239 13.75 16.1H14.75ZM12.75 17.2C12.4739 17.2 12.25 17.4239 12.25 17.7C12.25 17.9761 12.4739 18.2 12.75 18.2V17.2ZM20.25 18.2C20.5261 18.2 20.75 17.9761 20.75 17.7C20.75 17.4239 20.5261 17.2 20.25 17.2V18.2ZM20.6898 16.442C20.8786 16.2405 20.8684 15.9241 20.667 15.7352C20.4655 15.5464 20.1491 15.5566 19.9602 15.758L20.6898 16.442ZM14.25 22C13.9739 22 13.75 22.2239 13.75 22.5C13.75 22.7761 13.9739 23 14.25 23V22ZM18.75 23C19.0261 23 19.25 22.7761 19.25 22.5C19.25 22.2239 19.0261 22 18.75 22V23ZM18.2353 15.7412C18.4789 15.6112 18.5711 15.3084 18.4412 15.0647C18.3112 14.8211 18.0084 14.7289 17.7647 14.8588L18.2353 15.7412ZM16.2027 14.2878C16.0855 14.0377 15.7878 13.9301 15.5378 14.0473C15.2877 14.1645 15.1801 14.4622 15.2973 14.7122L16.2027 14.2878ZM17 22.5V16.1H16V22.5H17ZM16.8648 19.758L14.6148 17.358L13.8852 18.042L16.1352 20.442L16.8648 19.758ZM14.75 17.7V16.1H13.75V17.7H14.75ZM14.25 17.2H12.75V18.2H14.25V17.2ZM16.8591 20.4479L19.1841 18.0479L18.4659 17.3521L16.1409 19.7521L16.8591 20.4479ZM18.825 18.2H20.25V17.2H18.825V18.2ZM19.1898 18.042L20.6898 16.442L19.9602 15.758L18.4602 17.358L19.1898 18.042ZM14.25 23H18.75V22H14.25V23ZM16.7353 16.5412L18.2353 15.7412L17.7647 14.8588L16.2647 15.6588L16.7353 16.5412ZM16.9527 15.8878L16.2027 14.2878L15.2973 14.7122L16.0473 16.3122L16.9527 15.8878Z" fill="#28292C"/>
<path d="M15.75 19.3C15 20.1 14.25 20.1 13.5 20.1C11.85 20.1 10.5 18.66 10.5 16.9C10.5 15.14 11.85 13.7 13.5 13.7C13.5 11.94 14.85 10.5 16.5 10.5C18.15 10.5 19.5 11.94 19.5 13.7C21.15 13.7 22.5 15.14 22.5 16.9C22.5 18.66 21.15 20.1 19.5 20.1C18.75 20.1 18 20.1 17.25 19.3" stroke="#28292C" stroke-miterlimit="10" stroke-linecap="round" stroke-linejoin="round"/>
</svg>
