<svg width="24" height="24" viewBox="0 0 24 24" fill="none" xmlns="http://www.w3.org/2000/svg">
<path d="M10.1765 5.17647C9.66061 5.95035 8.33829 6.27942 7.23535 5.91177V7.38236L9 9H12.5L16 12L19.0001 8.85295L12.3824 2.2353H9.44123C10.5442 2.60295 10.9118 4.07353 10.1765 5.17647Z" fill="white"/>
<path d="M9.44123 2.2353H12.3824L19.0001 8.85295L16.4265 11.4265L15.7831 12.0699M7.23535 5.91177V7.38236L8.88976 9.03677" stroke="#28292C" stroke-miterlimit="10" stroke-linecap="round" stroke-linejoin="round"/>
<path d="M10.9119 4.44117L16.0589 9.58823" stroke="#28292C" stroke-miterlimit="10" stroke-linecap="round" stroke-linejoin="round"/>
<path d="M9.44116 5.9118L14.5882 11.0589" stroke="#28292C" stroke-miterlimit="10" stroke-linecap="round" stroke-linejoin="round"/>
<path d="M9.44118 3.70588C9.22059 4.14706 8.48529 4.44118 7.97059 4.44118C7.16176 4.44118 6.5 3.77941 6.5 2.97059C6.5 2.16176 7.16176 1.5 7.97059 1.5" stroke="#28292C" stroke-miterlimit="10" stroke-linecap="round" stroke-linejoin="round"/>
<path d="M9.67653 13.6765C9.16061 14.4503 7.83829 14.7794 6.73535 14.4118V15.8824L13.353 22.5L18.5001 17.3529L11.8824 10.7353H8.94123C10.0442 11.1029 10.4118 12.5735 9.67653 13.6765Z" fill="white"/>
<path d="M8.94123 10.7353H11.8824L18.5001 17.3529L13.353 22.5L6.73535 15.8824V14.4118" stroke="#28292C" stroke-miterlimit="10" stroke-linecap="round" stroke-linejoin="round"/>
<path d="M10.4119 12.9412L15.5589 18.0882" stroke="#28292C" stroke-miterlimit="10" stroke-linecap="round" stroke-linejoin="round"/>
<path d="M8.94116 14.4118L14.0882 19.5589" stroke="#28292C" stroke-miterlimit="10" stroke-linecap="round" stroke-linejoin="round"/>
<path d="M8.94118 12.2059C8.72059 12.6471 7.98529 12.9412 7.47059 12.9412C6.66176 12.9412 6 12.2794 6 11.4706C6 10.6618 6.66176 10 7.47059 10" stroke="#28292C" stroke-miterlimit="10" stroke-linecap="round" stroke-linejoin="round"/>
</svg>
