<svg width="24" height="24" viewBox="0 0 24 24" fill="none" xmlns="http://www.w3.org/2000/svg">
<path d="M15.2 10C15.2 11.7673 13.7673 13.2 12 13.2C10.2327 13.2 8.8 11.7673 8.8 10C8.8 8.23269 10.2327 6.8 12 6.8C13.7673 6.8 15.2 8.23269 15.2 10Z" fill="white"/>
<path d="M20 10C20 17.6183 12 22 12 22C12 22 4 17.6183 4 10C4 5.58172 7.58172 2 12 2C16.4183 2 20 5.58172 20 10Z" fill="white"/>
<path d="M15.2 10C15.2 11.7673 13.7673 13.2 12 13.2C10.2327 13.2 8.8 11.7673 8.8 10C8.8 8.23269 10.2327 6.8 12 6.8C13.7673 6.8 15.2 8.23269 15.2 10Z" stroke="#28292C" stroke-linecap="round" stroke-linejoin="round"/>
<path d="M20 10C20 17.6183 12 22 12 22C12 22 4 17.6183 4 10C4 5.58172 7.58172 2 12 2C16.4183 2 20 5.58172 20 10Z" stroke="#28292C" stroke-linecap="round" stroke-linejoin="round"/>
</svg>
