<svg width="24" height="24" viewBox="0 0 24 24" fill="none" xmlns="http://www.w3.org/2000/svg">
<path d="M1.5 7.86364H11.5L8.375 4.68182L11.5 1.5H1.5V15.5" stroke="#28292C" stroke-linecap="round" stroke-linejoin="round"/>
<path d="M15.3938 17.0537C15.6313 17.3716 15.9344 17.6346 16.2824 17.8249C16.6304 18.0153 17.0152 18.1284 17.4108 18.1568C17.8064 18.1851 18.2034 18.128 18.575 17.9893C18.9465 17.8505 19.2839 17.6334 19.5643 17.3527L21.2237 15.6916C21.7274 15.1695 22.0062 14.4702 21.9999 13.7443C21.9936 13.0185 21.7027 12.3241 21.19 11.8108C20.6772 11.2976 19.9836 11.0064 19.2584 11.0001C18.5333 10.9938 17.8347 11.2728 17.3131 11.7771L16.3617 12.7239M17.6062 15.9463C17.3687 15.6284 17.0656 15.3654 16.7176 15.1751C16.3696 14.9847 15.9848 14.8716 15.5892 14.8432C15.1936 14.8149 14.7966 14.872 14.425 15.0107C14.0535 15.1495 13.7161 15.3666 13.4357 15.6473L11.7763 17.3084C11.2726 17.8305 10.9938 18.5298 11.0001 19.2557C11.0064 19.9815 11.2973 20.6759 11.81 21.1892C12.3228 21.7024 13.0164 21.9936 13.7416 21.9999C14.4667 22.0062 15.1653 21.7272 15.6869 21.2229L16.6327 20.2761" stroke="#28292C" stroke-linecap="round" stroke-linejoin="round"/>
</svg>
