<svg width="24" height="24" viewBox="0 0 24 24" fill="none" xmlns="http://www.w3.org/2000/svg">
<path d="M4.5 12.5L2.5 8.5C2 8.5 1.5 8.1 1.5 7.5V1.5H7.5V7.5C7.5 8.1 7.1 8.5 6.5 8.5L4.5 12.5Z" fill="white"/>
<path d="M2.5 8.5L4.5 12.5" stroke="#28292C" stroke-miterlimit="10" stroke-linecap="round" stroke-linejoin="round"/>
<path d="M4.5 12.5L6.5 8.5" stroke="#28292C" stroke-miterlimit="10" stroke-linecap="round" stroke-linejoin="round"/>
<path d="M7.5 1.5V7.5C7.5 8.1 7.1 8.5 6.5 8.5H2.5C2 8.5 1.5 8.1 1.5 7.5V1.5" stroke="#28292C" stroke-miterlimit="10" stroke-linecap="round" stroke-linejoin="round"/>
<path d="M10 6.5H12" stroke="#28292C" stroke-miterlimit="10" stroke-linecap="round" stroke-linejoin="round"/>
<path d="M14 6.5H16" stroke="#28292C" stroke-miterlimit="10" stroke-linecap="round" stroke-linejoin="round"/>
<path d="M9.5 5.5L11.5 2.5L13.5 5.5L15.5 2.5L16.5 4" stroke="#28292C" stroke-miterlimit="10" stroke-linecap="round" stroke-linejoin="round"/>
<path d="M15.5 9.5H10.5L7.5 12.5V16.5H13L14.5 14.5L12.5 12.5L15.5 9.5Z" fill="white"/>
<path d="M14.5 14.5L12.5 12.5L15.5 9.5H10.5L7.5 12.5V16.5H13.5" stroke="#28292C" stroke-linecap="round" stroke-linejoin="round"/>
<path d="M12.5 9.5L7.5 14.5" stroke="#28292C" stroke-miterlimit="10" stroke-linecap="round" stroke-linejoin="round"/>
<path d="M14 11L8.5 16.5" stroke="#28292C" stroke-miterlimit="10" stroke-linecap="round" stroke-linejoin="round"/>
<path d="M11.5 16.5L12.75 15.25" stroke="#28292C" stroke-miterlimit="10" stroke-linecap="round" stroke-linejoin="round"/>
<path d="M19.5 20.5L23 16.5H16L19.5 20.5Z" fill="#28292C" stroke="#28292C" stroke-linejoin="round"/>
</svg>
