<svg width="24" height="24" viewBox="0 0 24 24" fill="none" xmlns="http://www.w3.org/2000/svg">
<path d="M4.92893 19.0711C6.8043 20.9464 9.34784 22 12 22H12.25C12.575 22 12.8936 21.9095 13.17 21.7386C13.4465 21.5678 13.6699 21.3233 13.8152 21.0326C13.9606 20.7419 14.0221 20.4165 13.9929 20.0928C13.9637 19.7692 13.845 19.46 13.65 19.2L13.35 18.8C13.155 18.54 13.0363 18.2308 13.0071 17.9072C12.9779 17.5835 13.0394 17.2581 13.1848 16.9674C13.3301 16.6767 13.5535 16.4322 13.83 16.2614C14.1064 16.0905 14.425 16 14.75 16H17C18.3261 16 19.5979 15.4732 20.5355 14.5355C21.4732 13.5979 22 12.3261 22 11C22 8.61305 20.9464 6.32387 19.0711 4.63604C17.1957 2.94821 14.6522 2 12 2C9.34784 2 6.8043 3.05357 4.92893 4.92893C3.05357 6.8043 2 9.34784 2 12C2 14.6522 3.05357 17.1957 4.92893 19.0711Z" fill="white" stroke="#28292C" stroke-linecap="round" stroke-linejoin="round"/>
<path d="M13.5 7C13.7761 7 14 6.77614 14 6.5C14 6.22386 13.7761 6 13.5 6C13.2239 6 13 6.22386 13 6.5C13 6.77614 13.2239 7 13.5 7Z" fill="#28292C"/>
<path d="M17.5 11C17.7761 11 18 10.7761 18 10.5C18 10.2239 17.7761 10 17.5 10C17.2239 10 17 10.2239 17 10.5C17 10.7761 17.2239 11 17.5 11Z" fill="#28292C"/>
<path d="M6.5 13C6.77614 13 7 12.7761 7 12.5C7 12.2239 6.77614 12 6.5 12C6.22386 12 6 12.2239 6 12.5C6 12.7761 6.22386 13 6.5 13Z" fill="#28292C"/>
<path d="M8.5 8C8.77614 8 9 7.77614 9 7.5C9 7.22386 8.77614 7 8.5 7C8.22386 7 8 7.22386 8 7.5C8 7.77614 8.22386 8 8.5 8Z" fill="#28292C"/>
<path d="M12 22C9.34784 22 6.8043 20.9464 4.92893 19.0711C3.05357 17.1957 2 14.6522 2 12C2 9.34784 3.05357 6.8043 4.92893 4.92893C6.8043 3.05357 9.34784 2 12 2C14.6522 2 17.1957 2.94821 19.0711 4.63604C20.9464 6.32387 22 8.61305 22 11C22 12.3261 21.4732 13.5979 20.5355 14.5355C19.5979 15.4732 18.3261 16 17 16H14.75C14.425 16 14.1064 16.0905 13.83 16.2614C13.5535 16.4322 13.3301 16.6767 13.1848 16.9674C13.0394 17.2581 12.9779 17.5835 13.0071 17.9072C13.0363 18.2308 13.155 18.54 13.35 18.8L13.65 19.2C13.845 19.46 13.9637 19.7692 13.9929 20.0928C14.0221 20.4165 13.9606 20.7419 13.8152 21.0326C13.6699 21.3233 13.4465 21.5678 13.17 21.7386C12.8936 21.9095 12.575 22 12.25 22H12Z" stroke="#28292C" stroke-linecap="round" stroke-linejoin="round"/>
<path d="M13.5 7C13.7761 7 14 6.77614 14 6.5C14 6.22386 13.7761 6 13.5 6C13.2239 6 13 6.22386 13 6.5C13 6.77614 13.2239 7 13.5 7Z" stroke="#28292C" stroke-linecap="round" stroke-linejoin="round"/>
<path d="M17.5 11C17.7761 11 18 10.7761 18 10.5C18 10.2239 17.7761 10 17.5 10C17.2239 10 17 10.2239 17 10.5C17 10.7761 17.2239 11 17.5 11Z" stroke="#28292C" stroke-linecap="round" stroke-linejoin="round"/>
<path d="M6.5 13C6.77614 13 7 12.7761 7 12.5C7 12.2239 6.77614 12 6.5 12C6.22386 12 6 12.2239 6 12.5C6 12.7761 6.22386 13 6.5 13Z" stroke="#28292C" stroke-linecap="round" stroke-linejoin="round"/>
<path d="M8.5 8C8.77614 8 9 7.77614 9 7.5C9 7.22386 8.77614 7 8.5 7C8.22386 7 8 7.22386 8 7.5C8 7.77614 8.22386 8 8.5 8Z" stroke="#28292C" stroke-linecap="round" stroke-linejoin="round"/>
</svg>
