<svg width="24" height="24" viewBox="0 0 24 24" fill="none" xmlns="http://www.w3.org/2000/svg">
<path d="M19.5 4.7C19.5 3.1 18.375 1.5 16.5 1.5C14.625 1.5 13.5 3.1 13.5 4.7C12.75 4.7 10.5 5.30953 10.5 7.9C10.5 10.3 12.375 11.1 13.5 11.1C14.625 11.1 15.375 10.7 15.75 10.3H17.25C17.625 10.7 18.375 11.1 19.5 11.1C20.625 11.1 22.5 10.3 22.5 7.9C22.5 5.30953 20.25 4.7 19.5 4.7Z" fill="white"/>
<path d="M16 13.5C16 13.7761 16.2239 14 16.5 14C16.7761 14 17 13.7761 17 13.5H16ZM16.5 11.1L16.1352 11.442C16.2288 11.5418 16.3591 11.5989 16.4959 11.6C16.6327 11.6011 16.7639 11.5461 16.8591 11.4479L16.5 11.1ZM14.75 7.1C14.75 6.82386 14.5261 6.6 14.25 6.6C13.9739 6.6 13.75 6.82386 13.75 7.1H14.75ZM12.75 8.2C12.4739 8.2 12.25 8.42386 12.25 8.7C12.25 8.97614 12.4739 9.2 12.75 9.2V8.2ZM20.25 9.2C20.5261 9.2 20.75 8.97614 20.75 8.7C20.75 8.42386 20.5261 8.2 20.25 8.2V9.2ZM20.6898 7.44197C20.8786 7.24051 20.8684 6.9241 20.667 6.73523C20.4655 6.54637 20.1491 6.55657 19.9602 6.75803L20.6898 7.44197ZM14.25 13C13.9739 13 13.75 13.2239 13.75 13.5C13.75 13.7761 13.9739 14 14.25 14V13ZM18.75 14C19.0261 14 19.25 13.7761 19.25 13.5C19.25 13.2239 19.0261 13 18.75 13V14ZM18.2353 6.74118C18.4789 6.61123 18.5711 6.30836 18.4412 6.06471C18.3112 5.82105 18.0084 5.72887 17.7647 5.85882L18.2353 6.74118ZM16.2027 5.28778C16.0855 5.03775 15.7878 4.93007 15.5378 5.04727C15.2877 5.16447 15.1801 5.46218 15.2973 5.71222L16.2027 5.28778ZM17 13.5V7.1H16V13.5H17ZM16.8648 10.758L14.6148 8.35803L13.8852 9.04197L16.1352 11.442L16.8648 10.758ZM14.75 8.7V7.1H13.75V8.7H14.75ZM14.25 8.2H12.75V9.2H14.25V8.2ZM16.8591 11.4479L19.1841 9.0479L18.4659 8.3521L16.1409 10.7521L16.8591 11.4479ZM18.825 9.2H20.25V8.2H18.825V9.2ZM19.1898 9.04197L20.6898 7.44197L19.9602 6.75803L18.4602 8.35803L19.1898 9.04197ZM14.25 14H18.75V13H14.25V14ZM16.7353 7.54118L18.2353 6.74118L17.7647 5.85882L16.2647 6.65882L16.7353 7.54118ZM16.9527 6.88778L16.2027 5.28778L15.2973 5.71222L16.0473 7.31222L16.9527 6.88778Z" fill="#28292C"/>
<path d="M15.75 10.3C15 11.1 14.25 11.1 13.5 11.1C11.85 11.1 10.5 9.66 10.5 7.9C10.5 6.14 11.85 4.7 13.5 4.7C13.5 2.94 14.85 1.5 16.5 1.5C18.15 1.5 19.5 2.94 19.5 4.7C21.15 4.7 22.5 6.14 22.5 7.9C22.5 9.66 21.15 11.1 19.5 11.1C18.75 11.1 18 11.1 17.25 10.3" stroke="#28292C" stroke-miterlimit="10" stroke-linecap="round" stroke-linejoin="round"/>
<path d="M6.5 20.5C9.26142 20.5 11.5 18.2614 11.5 15.5C11.5 12.7386 9.26142 10.5 6.5 10.5C3.73858 10.5 1.5 12.7386 1.5 15.5C1.5 18.2614 3.73858 20.5 6.5 20.5Z" fill="white" stroke="#28292C" stroke-width="1.0744" stroke-miterlimit="10" stroke-linecap="round" stroke-linejoin="round"/>
<path d="M13.5 22.5L10.5 19.5" stroke="#28292C" stroke-miterlimit="10" stroke-linecap="round" stroke-linejoin="round"/>
</svg>
