<svg width="24" height="24" viewBox="0 0 24 24" fill="none" xmlns="http://www.w3.org/2000/svg">
<path d="M12 5.23333C12 3.36667 10.6875 1.5 8.5 1.5C6.3125 1.5 5 3.36667 5 5.23333C4.125 5.23333 1.5 5.94446 1.5 8.96667C1.5 11.7667 3.6875 12.7 5 12.7C6.3125 12.7 7.1875 12.2333 7.625 11.7667H9.375C9.8125 12.2333 10.6875 12.7 12 12.7C13.3125 12.7 15.5 11.7667 15.5 8.96667C15.5 5.94446 12.875 5.23333 12 5.23333Z" fill="white"/>
<path d="M8 15.5C8 15.7761 8.22386 16 8.5 16C8.77614 16 9 15.7761 9 15.5H8ZM8.5 12.7L8.13523 13.042C8.22878 13.1418 8.35913 13.1989 8.49591 13.2C8.63268 13.2011 8.76395 13.1461 8.85912 13.0479L8.5 12.7ZM6.375 8.03333C6.375 7.75719 6.15114 7.53333 5.875 7.53333C5.59886 7.53333 5.375 7.75719 5.375 8.03333H6.375ZM4.125 9.4C3.84886 9.4 3.625 9.62385 3.625 9.9C3.625 10.1761 3.84886 10.4 4.125 10.4V9.4ZM12.875 10.4C13.1511 10.4 13.375 10.1761 13.375 9.9C13.375 9.62385 13.1511 9.4 12.875 9.4V10.4ZM13.3273 8.3753C13.5161 8.17385 13.5059 7.85743 13.3045 7.66856C13.103 7.4797 12.7866 7.4899 12.5977 7.69136L13.3273 8.3753ZM5.875 15C5.59886 15 5.375 15.2239 5.375 15.5C5.375 15.7761 5.59886 16 5.875 16V15ZM11.125 16C11.4011 16 11.625 15.7761 11.625 15.5C11.625 15.2239 11.4011 15 11.125 15V16ZM10.4853 7.54117C10.7289 7.41122 10.8211 7.10836 10.6912 6.8647C10.5612 6.62105 10.2584 6.52887 10.0147 6.65882L10.4853 7.54117ZM8.07773 5.95445C7.96053 5.70441 7.66282 5.59673 7.41278 5.71393C7.16275 5.83114 7.05507 6.12885 7.17227 6.37888L8.07773 5.95445ZM9 15.5V8.03333H8V15.5H9ZM8.86477 12.358L6.23977 9.55803L5.51023 10.242L8.13523 13.042L8.86477 12.358ZM6.375 9.9V8.03333H5.375V9.9H6.375ZM5.875 9.4H4.125V10.4H5.875V9.4ZM8.85912 13.0479L11.5716 10.2479L10.8534 9.5521L8.14088 12.3521L8.85912 13.0479ZM11.2125 10.4H12.875V9.4H11.2125V10.4ZM11.5773 10.242L13.3273 8.3753L12.5977 7.69136L10.8477 9.55803L11.5773 10.242ZM5.875 16H11.125V15H5.875V16ZM8.73529 8.47451L10.4853 7.54117L10.0147 6.65882L8.26471 7.59215L8.73529 8.47451ZM8.95273 7.82111L8.07773 5.95445L7.17227 6.37888L8.04727 8.24555L8.95273 7.82111Z" fill="#28292C"/>
<path d="M7.625 11.7667C6.75 12.7 5.875 12.7 5 12.7C3.075 12.7 1.5 11.02 1.5 8.96667C1.5 6.91333 3.075 5.23333 5 5.23333C5 3.18 6.575 1.5 8.5 1.5C10.425 1.5 12 3.18 12 5.23333C13.925 5.23333 15.5 6.91333 15.5 8.96667C15.5 11.02 13.925 12.7 12 12.7C11.125 12.7 10.25 12.7 9.375 11.7667" stroke="#28292C" stroke-miterlimit="10" stroke-linecap="round" stroke-linejoin="round"/>
<path d="M17.5 20.5L21 16.5H14L17.5 20.5Z" fill="#28292C" stroke="#28292C" stroke-linejoin="round"/>
</svg>
