<svg width="24" height="24" viewBox="0 0 24 24" fill="none" xmlns="http://www.w3.org/2000/svg">
<path d="M12.5 10.5C12.5 9.87868 12.8787 9.5 13.5 9.5H16.5H21.5C22.1213 9.5 22.5 9.87868 22.5 10.5V21.6296C22.5 22.251 22.1213 22.5 21.5 22.5H13.5C12.8787 22.5 12.5 22.251 12.5 21.6296V10.5Z" fill="white"/>
<path d="M17 12.5H21M17 15.5H21M17 18.5H21M14.51 12.5H14.5M14.5 15.5H14.51M14.5 18.5H14.51M21.5 9.5C22.1213 9.5 22.5 9.87868 22.5 10.5V21.6296C22.5 22.251 22.1213 22.5 21.5 22.5H13.5C12.8787 22.5 12.5 22.251 12.5 21.6296V10.5C12.5 9.87868 12.8787 9.5 13.5 9.5H16.5H21.5Z" stroke="#28292C" stroke-linecap="round" stroke-linejoin="round"/>
<path d="M12.5 10.5C12.5 9.87868 12.8787 9.5 13.5 9.5H16.5H21.5C22.1213 9.5 22.5 9.87868 22.5 10.5V21.6296C22.5 22.251 22.1213 22.5 21.5 22.5H13.5C12.8787 22.5 12.5 22.251 12.5 21.6296V10.5Z" fill="white"/>
<path d="M17 12.5H21M17 15.5H21M17 18.5H21M14.51 12.5H14.5M14.5 15.5H14.51M14.5 18.5H14.51M21.5 9.5C22.1213 9.5 22.5 9.87868 22.5 10.5V21.6296C22.5 22.251 22.1213 22.5 21.5 22.5H13.5C12.8787 22.5 12.5 22.251 12.5 21.6296V10.5C12.5 9.87868 12.8787 9.5 13.5 9.5H16.5H21.5Z" stroke="#28292C" stroke-linecap="round" stroke-linejoin="round"/>
<path d="M10 3.76667L9.4 18.9667C9.28 20.1067 8.56 21.5 7 21.5C5.44 21.5 4.72 20.1067 4.6 18.9667L4 3.76667" fill="white"/>
<path d="M4 3.76667C4 2.75333 5.68 2.5 7 2.5C8.56 2.5 10 2.75333 10 3.76667C10 4.78 8.2 5.03333 7 5.03333C5.44 5.03333 4 4.65333 4 3.76667Z" fill="white"/>
<path d="M9.4 18.9667L9.89725 19.019C9.89839 19.0082 9.89918 18.9973 9.89961 18.9864L9.4 18.9667ZM4.6 18.9667L4.10039 18.9864C4.10082 18.9973 4.10161 19.0082 4.10275 19.019L4.6 18.9667ZM10 3.76667L9.50039 3.74695L8.90039 18.9469L9.4 18.9667L9.89961 18.9864L10.4996 3.78639L10 3.76667ZM9.4 18.9667L8.90275 18.9143C8.85037 19.4119 8.66694 19.9491 8.34853 20.3498C8.0415 20.7362 7.60939 21 7 21V21.5V22C7.95061 22 8.6585 21.5671 9.13147 20.9719C9.59306 20.3909 9.82963 19.6614 9.89725 19.019L9.4 18.9667ZM7 21.5V21C6.39061 21 5.9585 20.7362 5.65147 20.3498C5.33306 19.9491 5.14963 19.4119 5.09725 18.9143L4.6 18.9667L4.10275 19.019C4.17037 19.6614 4.40694 20.3909 4.86853 20.9719C5.3415 21.5671 6.04939 22 7 22V21.5ZM4.6 18.9667L5.09961 18.9469L4.49961 3.74695L4 3.76667L3.50039 3.78639L4.10039 18.9864L4.6 18.9667ZM4 3.76667H4.5C4.5 3.61275 4.61161 3.40681 5.15945 3.22888C5.67111 3.0627 6.36021 3 7 3V2.5V2C6.31979 2 5.50889 2.06397 4.85055 2.27779C4.22839 2.47985 3.5 2.90725 3.5 3.76667H4ZM7 2.5V3C7.76701 3 8.44896 3.06408 8.92306 3.22638C9.15776 3.30673 9.30534 3.39928 9.38969 3.48726C9.46256 3.56328 9.5 3.64619 9.5 3.76667H10H10.5C10.5 3.38047 10.3574 3.05172 10.1116 2.79524C9.87716 2.55072 9.56724 2.38994 9.24694 2.28029C8.61104 2.06259 7.79299 2 7 2V2.5ZM10 3.76667H9.5C9.5 3.85041 9.47038 3.92744 9.36828 4.01797C9.25403 4.11927 9.06526 4.21903 8.79905 4.30333C8.26862 4.4713 7.57638 4.53333 7 4.53333V5.03333V5.53333C7.62362 5.53333 8.43138 5.4687 9.10095 5.25667C9.43474 5.15097 9.77097 4.9974 10.0317 4.7662C10.3046 4.52423 10.5 4.18959 10.5 3.76667H10ZM7 5.03333V4.53333C6.2502 4.53333 5.56623 4.44074 5.08886 4.2637C4.58095 4.07533 4.5 3.87756 4.5 3.76667H4H3.5C3.5 4.54244 4.13905 4.978 4.74114 5.2013C5.37377 5.43592 6.1898 5.53333 7 5.53333V5.03333Z" fill="#28292C"/>
</svg>
