<svg width="24" height="24" viewBox="0 0 24 24" fill="none" xmlns="http://www.w3.org/2000/svg">
<rect x="1.5" y="1.5" width="15" height="12" rx="0.5" fill="white" stroke="#28292C" stroke-linejoin="round"/>
<path d="M14.5 7.52941V11.4118H3.5V6.23529L7.38235 3L14.5 7.52941Z" stroke="#28292C" stroke-miterlimit="10" stroke-linecap="round" stroke-linejoin="round"/>
<path d="M7.38232 3L9.3235 6.23529V11.0882" stroke="#28292C" stroke-miterlimit="10" stroke-linecap="round" stroke-linejoin="round"/>
<path d="M14.5 7.52941L9.32349 6.23529" stroke="#28292C" stroke-miterlimit="10" stroke-linecap="round" stroke-linejoin="round"/>
<path d="M7.38232 3L14.5 7.52941L9.3235 6.23529L7.38232 3Z" stroke="#28292C" stroke-miterlimit="10" stroke-linecap="round" stroke-linejoin="round"/>
<path d="M9.32349 6.23529L14.5 7.52941V11.4118H9.32349V6.23529Z" stroke="#28292C" stroke-miterlimit="10" stroke-linecap="round" stroke-linejoin="round"/>
<path d="M17.5 22.5C20.2614 22.5 22.5 20.2614 22.5 17.5C22.5 14.7386 20.2614 12.5 17.5 12.5C14.7386 12.5 12.5 14.7386 12.5 17.5C12.5 20.2614 14.7386 22.5 17.5 22.5Z" fill="white" stroke="#28292C" stroke-miterlimit="10" stroke-linecap="round" stroke-linejoin="round"/>
<path d="M15 17.5H20" stroke="#28292C" stroke-miterlimit="10" stroke-linecap="round" stroke-linejoin="round"/>
<path d="M17.5 15V20" stroke="#28292C" stroke-miterlimit="10" stroke-linecap="round" stroke-linejoin="round"/>
</svg>
