<svg width="24" height="24" viewBox="0 0 24 24" fill="none" xmlns="http://www.w3.org/2000/svg"><path d="M12 2.5h9a1.3 1.3 0 0 1 1.3 1.3v4.8a1.3 1.3 0 0 1-1.3 1.3h-9L7 6.2 12 2.5Z" fill="white" stroke="#28292C" stroke-linejoin="round"/><circle cx="9.8" cy="6.2" r="0.9" fill="#28292C"/><path d="M8 7h9a1.3 1.3 0 0 1 1.3 1.3v4.8a1.3 1.3 0 0 1-1.3 1.3h-9L3 10.7 8 7Z" fill="white" stroke="#28292C" stroke-linejoin="round"/><circle cx="5.8" cy="10.7" r="0.9" fill="#28292C"/><path d="M19 15.5v6M16 18.5h6" stroke="#28292C" stroke-linecap="round"/></svg>
