<svg width="24" height="24" viewBox="0 0 24 24" fill="none" xmlns="http://www.w3.org/2000/svg">
<path d="M12 13.1923L21.3077 22.5" stroke="#28292C" stroke-miterlimit="10" stroke-linecap="round" stroke-linejoin="round"/>
<path d="M12 20.8077L21.3077 11.5" stroke="#28292C" stroke-miterlimit="10" stroke-linecap="round" stroke-linejoin="round"/>
<path d="M9.5 6.5V3.5C9.5 2.94772 9.94772 2.5 10.5 2.5H17" stroke="#28292C" stroke-linecap="round" stroke-linejoin="round"/>
<path d="M17.5 6.5H10.5C9.94772 6.5 9.5 6.94772 9.5 7.5V8" stroke="#28292C" stroke-linecap="round" stroke-linejoin="round"/>
<path d="M17.5 10.5H10.5C9.94772 10.5 9.5 10.0523 9.5 9.5V9" stroke="#28292C" stroke-linecap="round" stroke-linejoin="round"/>
<rect x="15.5" y="1.5" width="3" height="2" rx="1" fill="#28292C" stroke="#28292C"/>
<rect x="15.5" y="5.5" width="3" height="2" rx="1" fill="white" stroke="#28292C"/>
<rect x="15.5" y="9.5" width="3" height="2" rx="1" fill="white" stroke="#28292C"/>
<path d="M12.5 7.6V11.5H1.5V6.3L5.5 2.5L12.5 7.6Z" fill="white" stroke="#28292C" stroke-miterlimit="10" stroke-linecap="round" stroke-linejoin="round"/>
<path d="M5.5 2.5L7.5 6.5V11.5" fill="white"/>
<path d="M5.5 2.5L7.5 6.5V11.5" stroke="#28292C" stroke-miterlimit="10" stroke-linecap="round" stroke-linejoin="round"/>
<path d="M12.5 7.6L7.5 6.5" stroke="#28292C" stroke-miterlimit="10" stroke-linecap="round" stroke-linejoin="round"/>
<path d="M5.5 2.5L12.5 7.6L7.5 6.5L5.5 2.5Z" fill="white" stroke="#28292C" stroke-miterlimit="10" stroke-linecap="round" stroke-linejoin="round"/>
</svg>
