<svg width="24" height="24" viewBox="0 0 24 24" fill="none" xmlns="http://www.w3.org/2000/svg"><path d="M11 2h9a1.3 1.3 0 0 1 1.3 1.3v4.8a1.3 1.3 0 0 1-1.3 1.3h-9L6 5.7 11 2Z" fill="white" stroke="#28292C" stroke-linejoin="round"/><circle cx="8.8" cy="5.7" r="0.9" fill="#28292C"/><path d="M7.5 6.5h9a1.3 1.3 0 0 1 1.3 1.3v4.8a1.3 1.3 0 0 1-1.3 1.3h-9L2.5 10.2 7.5 6.5Z" fill="white" stroke="#28292C" stroke-linejoin="round"/><circle cx="5.3" cy="10.2" r="0.9" fill="#28292C"/><circle cx="18" cy="18" r="4.2" fill="white" stroke="#28292C"/><path d="M16.4 16.4l3.2 3.2M19.6 16.4l-3.2 3.2" stroke="#28292C" stroke-linecap="round"/></svg>
