<svg width="24" height="24" viewBox="0 0 24 24" fill="none" xmlns="http://www.w3.org/2000/svg">
<path d="M1.5 7.86364H11.5L8.375 4.68182L11.5 1.5H1.5V15.5" stroke="#28292C" stroke-linecap="round" stroke-linejoin="round"/>
<path d="M20.262 16.6375L21.208 15.697H21.197C21.7033 15.1723 21.9808 14.4682 21.9684 13.7391C21.956 13.01 21.6549 12.3157 21.131 11.8085C20.6178 11.3136 19.9327 11.0371 19.2198 11.0371C18.5068 11.0371 17.8217 11.3136 17.3085 11.8085L16.3625 12.749M12.7435 16.3625L11.803 17.303C11.2967 17.8277 11.0192 18.5318 11.0316 19.2609C11.044 19.99 11.3451 20.6843 11.869 21.1915C12.3822 21.6864 13.0673 21.9629 13.7803 21.9629C14.4932 21.9629 15.1783 21.6864 15.6915 21.1915L16.632 20.251M14.3 11V12.65M11 14.3H12.65M18.7 20.35V22M20.35 18.7H22" stroke="#28292C" stroke-linecap="round" stroke-linejoin="round"/>
</svg>
