<svg width="24" height="24" viewBox="0 0 24 24" fill="none" xmlns="http://www.w3.org/2000/svg">
<path d="M14.5 16.1V11.7C14.5 11.4 14.9 10.7 15.2 10.7L17.8 10C18.2 10 18.5 10 18.5 10.4V14.8" fill="white"/>
<path d="M14.5 16.1V11.7C14.5 11.4 14.9 10.7 15.2 10.7L17.8 10C18.2 10 18.5 10 18.5 10.4V14.8" stroke="#28292C" stroke-miterlimit="10" stroke-linecap="round" stroke-linejoin="round"/>
<path d="M14.5 21V16.1V21Z" fill="white"/>
<path d="M14.5 21V16.1" stroke="#28292C" stroke-miterlimit="10" stroke-linecap="round" stroke-linejoin="round"/>
<path d="M22.5 16.2V20.5" stroke="#28292C" stroke-miterlimit="10" stroke-linecap="round" stroke-linejoin="round"/>
<path d="M18.5 22.5V17.6" stroke="#28292C" stroke-miterlimit="10" stroke-linecap="round" stroke-linejoin="round"/>
<path d="M22.5 16.2L18.5 14.8L14.5 16.2L18.5 17.6L22.5 16.2Z" fill="white" stroke="#28292C" stroke-miterlimit="10" stroke-linecap="round" stroke-linejoin="round"/>
<path d="M5.5 4.5H9.5M5.5 7.5H9.5M5.5 10.5H9.5M3.5 10.5H3.51M3.5 4.5H3.51M3.5 7.5H3.51M10.5 13.5H2.5C1.87868 13.5 1.5 13.2701 1.5 12.6966V2.42308C1.5 1.84955 1.87868 1.5 2.5 1.5H10.5C11.1213 1.5 11.5 1.84955 11.5 2.42308V12.6966C11.5 13.2701 11.1213 13.5 10.5 13.5Z" stroke="#28292C" stroke-linecap="round"/>
</svg>
