<svg width="24" height="24" viewBox="0 0 24 24" fill="none" xmlns="http://www.w3.org/2000/svg">
<path d="M17.7246 13.841C18.113 14.3393 18.6173 15.1375 18.8967 16.1958C19.1844 17.2856 19.1469 18.1585 19.0589 18.7317C19.1827 18.7067 19.2868 18.6815 19.3673 18.6599C19.6 18.5975 19.7999 18.4841 19.9612 18.3227C20.1102 18.1737 20.2216 17.991 20.3033 17.7908C20.1858 17.0534 20.0103 16.3364 19.9001 15.9188C19.7881 15.4946 19.5822 14.7706 19.3114 14.0579C19.2141 13.8016 19.1083 13.5469 18.9955 13.3081C18.7915 12.8762 18.5644 12.4964 18.3223 12.2542C18.3003 12.2322 18.2781 12.2106 18.2557 12.1892C18.107 12.0467 17.9503 11.9172 17.7873 11.8004C17.7702 11.7881 17.7531 11.7757 17.7359 11.7636C16.0641 10.602 13.7437 10.7656 12.2547 12.2547C10.7636 13.7458 10.6015 16.0706 11.7686 17.743C11.7838 17.6733 11.8005 17.6037 11.8191 17.5341C11.9628 16.9978 12.3999 16.3431 12.8952 15.7294C13.0408 14.9419 13.5651 14.1895 13.8772 13.8773C14.218 13.5366 14.9716 13.0137 15.7553 12.8801C16.023 12.8345 16.2941 12.8344 16.5536 12.9025C16.8057 12.9686 17.0468 13.0989 17.2627 13.3148C17.2926 13.3446 17.3307 13.3836 17.3754 13.4313C17.4682 13.5304 17.5894 13.6675 17.7246 13.841Z" fill="#28292C"/>
<path d="M18.7454 19.0382C18.1197 19.1254 17.1762 19.1631 16.1201 18.8758C15.0325 18.5801 14.2953 18.1112 13.8429 17.7484C13.8026 17.8681 13.7723 17.9708 13.7508 18.0513C13.6884 18.2841 13.6868 18.5139 13.7459 18.7343C13.8004 18.9379 13.903 19.1257 14.0354 19.2966C14.7328 19.5634 15.4415 19.7701 15.8582 19.8833C16.2815 19.9984 17.0116 20.1822 17.7641 20.304C18.0347 20.3478 18.3082 20.3836 18.5715 20.4053C19.0475 20.4445 19.49 20.4379 19.8207 20.3493C19.8508 20.3412 19.8806 20.3328 19.9103 20.3241C20.1081 20.2665 20.2985 20.1955 20.4812 20.1129C20.5005 20.1041 20.5197 20.0956 20.5388 20.0866C22.3807 19.2197 23.3992 17.1283 22.8542 15.0942C22.3084 13.0573 20.3761 11.7546 18.3443 11.9291C18.397 11.9771 18.4489 12.0264 18.4999 12.0773C18.8925 12.4699 19.2409 13.1758 19.5247 13.9116C20.1339 14.4315 20.5234 15.2617 20.6377 15.6881C20.7624 16.1536 20.8384 17.0677 20.5622 17.8132C20.4679 18.0678 20.3324 18.3027 20.1438 18.4934C19.9604 18.6787 19.727 18.8223 19.4321 18.9014C19.3913 18.9123 19.3385 18.9258 19.2748 18.9407C19.1427 18.9714 18.9633 19.0078 18.7454 19.0382Z" fill="#28292C"/>
<path d="M13.7336 17.323C13.9709 16.7375 14.41 15.9016 15.1869 15.1306C15.9868 14.3365 16.7615 13.9325 17.3018 13.7222C17.2184 13.6274 17.1445 13.5499 17.0856 13.491C16.9152 13.3206 16.717 13.2043 16.4965 13.1452C16.293 13.0906 16.079 13.0855 15.8648 13.1149C15.285 13.5854 14.7517 14.0958 14.4453 14.4001C14.1339 14.7091 13.6098 15.2494 13.128 15.8403C12.9547 16.0528 12.7871 16.2717 12.6367 16.4889C12.3647 16.8815 12.1492 17.268 12.0606 17.5988C12.0525 17.6287 12.0449 17.6589 12.0375 17.6889C11.9885 17.8889 11.9548 18.0894 11.935 18.289C11.9329 18.31 11.9308 18.3309 11.929 18.3519C11.7588 20.3806 13.0607 22.3083 15.0948 22.8533C17.1317 23.3991 19.226 22.377 20.0908 20.5301C20.0228 20.5518 19.9542 20.5722 19.8846 20.5908C19.3483 20.7345 18.5628 20.6833 17.7837 20.5611C17.0288 20.8289 16.1151 20.7511 15.6887 20.6368C15.2233 20.512 14.3936 20.1208 13.8861 19.5089C13.7127 19.2999 13.5771 19.0651 13.5063 18.8064C13.4375 18.555 13.4298 18.2811 13.5088 17.9861C13.5197 17.9453 13.5344 17.8928 13.5534 17.8302C13.5927 17.7004 13.651 17.5269 13.7336 17.323Z" fill="#28292C"/>
<path d="M4 15V19H8" stroke="#28292C" stroke-linecap="round" stroke-linejoin="round"/>
<path d="M7 17L9 19L7 21" stroke="#28292C" stroke-linecap="round" stroke-linejoin="round"/>
<path d="M1.5 7.86364H11.5L8.375 4.68182L11.5 1.5H1.5V15.5" stroke="#28292C" stroke-linecap="round" stroke-linejoin="round"/>
</svg>
