<?xml version="1.0" encoding="UTF-8" standalone="no"?>
<svg
   width="24"
   height="24"
   viewBox="0 0 24 24"
   fill="none"
   version="1.1"
   id="svg5"
   xml:space="preserve"
   xmlns="http://www.w3.org/2000/svg"
   xmlns:svg="http://www.w3.org/2000/svg"><defs
     id="defs5" /><rect
     x="1.7"
     y="1.7"
     width="8"
     height="8"
     rx="1"
     fill="#ffffff"
     stroke="#28292c"
     id="rect1" /><rect
     x="14.6"
     y="1.7"
     width="8"
     height="8"
     rx="4"
     fill="#ffffff"
     stroke="#28292c"
     id="rect2" /><path
     d="M 11.999969,2.6999382 7.9999691,10.699938 h 7.9999999 z"
     fill="#ffffff"
     stroke="#28292c"
     stroke-linejoin="round"
     id="path2" /><g
     id="g5"
     transform="translate(4.04017,9.2)"><path
       fill="#ffffff"
       stroke="#263238"
       stroke-linecap="round"
       stroke-linejoin="round"
       stroke-miterlimit="10"
       d="M 9,10.2"
       id="path1" /><path
       fill="#ffffff"
       stroke="#263238"
       stroke-linecap="round"
       stroke-linejoin="round"
       stroke-miterlimit="10"
       d="M 10.2,10.2"
       id="path2-6" /><g
       id="g3">
 <path
   fill="none"
   stroke="#297fff"
   stroke-linecap="round"
   stroke-linejoin="round"
   stroke-miterlimit="10"
   d="m 9.5,12.5 c 0,0.6 -0.4,1 -1,1 h -1 c -0.5,0 -1,-0.4 -1,-1 v -4 C 6.5,7.9 6.2,7.2 5.8,6.7 L 3.7,4.3 C 3.3,3.8 3.4,3.5 4,3.5 h 8 c 0.6,0 0.7,0.3 0.3,0.8 L 10.1,6.8 C 9.8,7.2 9.5,7.9 9.5,8.5 Z"
   id="path3-7" />
</g></g></svg>
