<svg width="24" height="24" viewBox="0 0 24 24" fill="none" xmlns="http://www.w3.org/2000/svg">
<path d="M7.03935 3.15666C7.42773 3.6549 7.93198 4.45312 8.21136 5.51144C8.49902 6.6012 8.46155 7.47408 8.37355 8.04728C8.49735 8.02234 8.60143 7.99713 8.68196 7.97554C8.91466 7.91315 9.11451 7.79967 9.27585 7.63829C9.42483 7.48932 9.53624 7.30657 9.61791 7.10644C9.50036 6.36901 9.32492 5.65196 9.21474 5.23445C9.10276 4.81024 8.89687 4.08618 8.62609 3.37348C8.52875 3.11723 8.42295 2.86255 8.31017 2.62368C8.10615 2.19183 7.87914 1.81197 7.63702 1.56981C7.61506 1.54782 7.5928 1.52618 7.57046 1.50477C7.42173 1.36235 7.26503 1.23285 7.10206 1.11596C7.08492 1.10367 7.06786 1.09128 7.05062 1.07926C5.37894 -0.0823813 3.05869 0.081251 1.56976 1.57031C0.0787621 3.06143 -0.0832598 5.38624 1.08372 7.05859C1.09894 6.98893 1.11563 6.91929 1.13426 6.84968C1.27792 6.31341 1.71504 5.65868 2.21028 5.04506C2.35584 4.25748 2.88008 3.50508 3.19223 3.19293C3.53294 2.85223 4.28651 2.3293 5.07023 2.19573C5.33789 2.15013 5.60899 2.15003 5.8684 2.21806C6.12054 2.28418 6.36158 2.41448 6.57752 2.63038C6.60738 2.66024 6.6455 2.69919 6.6902 2.74691C6.78299 2.84598 6.90414 2.98313 7.03935 3.15666Z" fill="#28292C"/>
<path d="M8.06004 8.35378C7.43436 8.44101 6.49097 8.47871 5.43491 8.19142C4.34733 7.89569 3.6102 7.42681 3.15784 7.06399C3.11749 7.1837 3.08728 7.28644 3.06575 7.36694C3.00339 7.59971 3.00171 7.82953 3.06083 8.04995C3.11534 8.25351 3.2179 8.44133 3.35029 8.61219C4.0477 8.87906 4.75637 9.08567 5.173 9.19895C5.59631 9.31406 6.32632 9.49781 7.07882 9.61964C7.34939 9.66344 7.62284 9.69917 7.88613 9.72093C8.3621 9.76016 8.80454 9.75349 9.13528 9.66489C9.16534 9.65684 9.19512 9.64842 9.22487 9.63973C9.4226 9.58208 9.61305 9.51115 9.79571 9.42847C9.81502 9.41973 9.83426 9.41121 9.8533 9.40221C11.6951 8.53528 12.7135 6.44392 12.1686 4.4098C11.6228 2.37288 9.6906 1.07017 7.65892 1.24472C7.71161 1.29274 7.76355 1.34201 7.81455 1.39293C8.20712 1.78551 8.55552 2.49146 8.83924 3.22722C9.44848 3.74712 9.83793 4.5773 9.95221 5.00373C10.0769 5.46917 10.1529 6.38333 9.87671 7.12885C9.78244 7.38346 9.64688 7.61835 9.45832 7.80899C9.27494 7.99429 9.04159 8.13788 8.74673 8.21698C8.70588 8.22793 8.65309 8.24142 8.5894 8.25631C8.45729 8.28704 8.27793 8.32342 8.06004 8.35378Z" fill="#28292C"/>
<path d="M3.04859 6.6386C3.28584 6.05311 3.72491 5.21723 4.50171 4.4462C5.3016 3.65215 6.07624 3.24815 6.61657 3.0378C6.53312 2.94305 6.45924 2.86549 6.4003 2.80658C6.22991 2.63617 6.03174 2.51987 5.81128 2.46077C5.60778 2.40626 5.39382 2.40113 5.17966 2.43047C4.5999 2.90097 4.06659 3.41146 3.76021 3.71566C3.44883 4.02471 2.92477 4.56503 2.44298 5.15592C2.26974 5.36837 2.10207 5.58732 1.95169 5.80448C1.67969 6.19708 1.46425 6.58358 1.37563 6.9144C1.36759 6.94435 1.35991 6.97446 1.35259 7.00452C1.3036 7.20456 1.26982 7.40499 1.25006 7.60458C1.24796 7.62562 1.24581 7.64656 1.24401 7.66754C1.07392 9.69619 2.37572 11.6239 4.40967 12.1689C6.4464 12.7148 8.54064 11.6926 9.40537 9.84573C9.33738 9.86742 9.26878 9.88778 9.1992 9.90642C8.66291 10.0501 7.87744 9.9989 7.09838 9.87674C6.34359 10.1445 5.42992 10.0667 5.00357 9.95237C4.53814 9.82764 3.70854 9.43644 3.20102 8.82446C3.02765 8.61551 2.89204 8.38071 2.82123 8.12204C2.75243 7.8706 2.74478 7.59668 2.82373 7.30173C2.8347 7.26087 2.84934 7.2084 2.86833 7.14584C2.9077 7.01601 2.96597 6.84246 3.04859 6.6386Z" fill="#28292C"/>
<path d="M5 15V19H9" stroke="#28292C" stroke-linecap="round" stroke-linejoin="round"/>
<path d="M8 17L10 19L8 21" stroke="#28292C" stroke-linecap="round" stroke-linejoin="round"/>
<path d="M13 15.3636H23L19.875 12.1818L23 9H13V23" stroke="#28292C" stroke-linecap="round" stroke-linejoin="round"/>
</svg>
