<svg width="24" height="24" viewBox="0 0 24 24" fill="none" xmlns="http://www.w3.org/2000/svg">
<path d="M19 22.5L22.5 18.5H15.5L19 22.5Z" fill="#28292C" stroke="#28292C" stroke-linejoin="round"/>
<rect x="15.5" y="8" width="3" height="2" rx="1" fill="#28292C"/>
<rect x="15.5" y="11" width="3" height="2" rx="1" fill="#28292C"/>
<rect x="15.5" y="14" width="3" height="2" rx="1" fill="#28292C"/>
<path d="M9 7V8C9 8.55228 9.44772 9 10 9H17" stroke="#28292C" stroke-linecap="round" stroke-linejoin="round"/>
<path d="M17.5 12H10.5C9.94772 12 9.5 11.5523 9.5 11V7" stroke="#28292C" stroke-linecap="round" stroke-linejoin="round"/>
<path d="M17.5 15H10.5C9.94772 15 9.5 14.5523 9.5 14V6" stroke="#28292C" stroke-linecap="round" stroke-linejoin="round"/>
<path d="M12.5 6.6V10.5H1.5V5.3L5.5 1.5L12.5 6.6Z" fill="white" stroke="#28292C" stroke-miterlimit="10" stroke-linecap="round" stroke-linejoin="round"/>
<path d="M5.5 1.5L7.5 5.5V10.5" fill="white"/>
<path d="M5.5 1.5L7.5 5.5V10.5" stroke="#28292C" stroke-miterlimit="10" stroke-linecap="round" stroke-linejoin="round"/>
<path d="M12.5 6.6L7.5 5.5" stroke="#28292C" stroke-miterlimit="10" stroke-linecap="round" stroke-linejoin="round"/>
<path d="M5.5 1.5L12.5 6.6L7.5 5.5L5.5 1.5Z" fill="white" stroke="#28292C" stroke-miterlimit="10" stroke-linecap="round" stroke-linejoin="round"/>
</svg>
