<svg width="24" height="24" viewBox="0 0 24 24" fill="none" xmlns="http://www.w3.org/2000/svg">
<rect x="9" y="5" width="10" height="13" fill="white"/>
<path d="M4.5 9.5C4.5 8.87868 4.87868 8.5 5.5 8.5H8.5H14.5C15.1213 8.5 15.5 8.87868 15.5 9.5V20.6296C15.5 21.251 15.1213 21.5 14.5 21.5H5.5C4.87868 21.5 4.5 21.251 4.5 20.6296V9.5Z" fill="white"/>
<path d="M11.5 5C11.5 4.76894 11.4353 4.70983 11.5 4.5C11.7832 3.58138 12.4884 2.5 13.5 2.5H15.5C16.5116 2.5 17.2168 3.58138 17.5 4.5C17.5647 4.70983 17.5 4.76894 17.5 5C17.5 5.41421 16.9142 5.5 16.5 5.5H12.5C12.0858 5.5 11.5 5.41421 11.5 5Z" fill="white"/>
<path d="M9 11.5H13M9 14.5H13M9 17.5H13M6.51 11.5H6.5M6.5 14.5H6.51M6.5 17.5H6.51M15.5 18.5H18.5C19 18.5 19.5 18 19.5 17.5V5.5C19.5 5 19 4.5 18.5 4.5C18.1267 4.46902 17.8757 4.52239 17.5 4.5M11.5 4.5C11.4353 4.70983 11.5 4.76894 11.5 5C11.5 5.41421 12.0858 5.5 12.5 5.5H16.5C16.9142 5.5 17.5 5.41421 17.5 5C17.5 4.76894 17.5647 4.70983 17.5 4.5M11.5 4.5C11.7832 3.58138 12.4884 2.5 13.5 2.5H15.5C16.5116 2.5 17.2168 3.58138 17.5 4.5M11.5 4.5C11.1243 4.52239 9.87457 4.5 9.5 4.5C9 4.5 8.5 5 8.5 5.5V8.5M8.5 8.5H5.5C4.87868 8.5 4.5 8.87868 4.5 9.5V20.6296C4.5 21.251 4.87868 21.5 5.5 21.5H14.5C15.1213 21.5 15.5 21.251 15.5 20.6296V9.5C15.5 8.87868 15.1213 8.5 14.5 8.5H8.5Z" stroke="#28292C" stroke-linecap="round" stroke-linejoin="round"/>
</svg>
