<svg width="24" height="24" viewBox="0 0 24 24" fill="none" xmlns="http://www.w3.org/2000/svg">
<path d="M10.3779 9.90234C10.8913 10.8886 11.5603 11.7021 12.1885 12.3311C12.8303 12.9736 13.4679 13.4629 13.9443 13.792C14.1838 13.9574 14.3865 14.0845 14.5332 14.1729C14.6067 14.2171 14.6661 14.2525 14.71 14.2773C14.7318 14.2897 14.75 14.2991 14.7637 14.3066C14.7705 14.3104 14.7765 14.3138 14.7812 14.3164C14.7835 14.3177 14.7853 14.3194 14.7871 14.3203L14.79 14.3213L14.791 14.3223L15.5 13L14.792 14.3223C15.0132 14.4407 15.2566 14.5 15.5 14.5V20.5L8.5 17.5V9.5L10.3779 9.90234Z" fill="white"/>
<path d="M20.5 17.5L15.5 20.5V14.5C15.7434 14.5 15.9868 14.4407 16.208 14.3223L15.5 13L16.209 14.3223L16.21 14.3213L16.2129 14.3203C16.2147 14.3194 16.2165 14.3177 16.2188 14.3164C16.2235 14.3138 16.2295 14.3104 16.2363 14.3066C16.25 14.2991 16.2682 14.2897 16.29 14.2773C16.3339 14.2525 16.3933 14.2171 16.4668 14.1729C16.6135 14.0845 16.8162 13.9574 17.0557 13.792C17.5321 13.4629 18.1697 12.9736 18.8115 12.3311C19.392 11.7499 20.0049 11.01 20.5 10.123V17.5Z" fill="white"/>
<path d="M8.5 17.5L2.5 19.5V11.5L8.5 9.5V17.5Z" fill="white"/>
<path d="M8.5 17.5L2.5 19.5V11.5M8.5 17.5L15.5 20.5M8.5 17.5V9.5M15.5 20.5L20.5 17.5V9.46899M15.5 20.5V15.5M2.5 11.469L8.5 9.5M8.5 9.5L10.5 10" stroke="#28292C" stroke-miterlimit="10" stroke-linecap="round" stroke-linejoin="round"/>
<path d="M17.3 6.4C17.3 7.37202 16.4941 8.16 15.5 8.16C14.5059 8.16 13.7 7.37202 13.7 6.4C13.7 5.42798 14.5059 4.64 15.5 4.64C16.4941 4.64 17.3 5.42798 17.3 6.4Z" fill="white"/>
<path d="M20 6.4C20 10.5901 15.5 13 15.5 13C15.5 13 11 10.5901 11 6.4C11 3.96995 13.0147 2 15.5 2C17.9853 2 20 3.96995 20 6.4Z" fill="white"/>
<path d="M17.3 6.4C17.3 7.37202 16.4941 8.16 15.5 8.16C14.5059 8.16 13.7 7.37202 13.7 6.4C13.7 5.42798 14.5059 4.64 15.5 4.64C16.4941 4.64 17.3 5.42798 17.3 6.4Z" stroke="#28292C" stroke-linecap="round" stroke-linejoin="round"/>
<path d="M20 6.4C20 10.5901 15.5 13 15.5 13C15.5 13 11 10.5901 11 6.4C11 3.96995 13.0147 2 15.5 2C17.9853 2 20 3.96995 20 6.4Z" stroke="#28292C" stroke-linecap="round" stroke-linejoin="round"/>
</svg>
