<svg width="24" height="24" viewBox="0 0 24 24" fill="none" xmlns="http://www.w3.org/2000/svg">
<path d="M6.5 20.5C9.26142 20.5 11.5 18.2614 11.5 15.5C11.5 12.7386 9.26142 10.5 6.5 10.5C3.73858 10.5 1.5 12.7386 1.5 15.5C1.5 18.2614 3.73858 20.5 6.5 20.5Z" fill="white" stroke="#28292C" stroke-width="1.0744" stroke-miterlimit="10" stroke-linecap="round" stroke-linejoin="round"/>
<path d="M13.5 22.5L10.5 19.5" stroke="#28292C" stroke-miterlimit="10" stroke-linecap="round" stroke-linejoin="round"/>
<path d="M14.1765 6.17647C13.6606 6.95035 12.3383 7.27942 11.2354 6.91177V8.38236L17.853 15L23.0001 9.85295L16.3824 3.2353H13.4412C14.5442 3.60295 14.9118 5.07353 14.1765 6.17647Z" fill="white"/>
<path d="M13.4412 3.2353H16.3824L23.0001 9.85295L17.853 15L11.2354 8.38236V6.91177" stroke="#28292C" stroke-miterlimit="10" stroke-linecap="round" stroke-linejoin="round"/>
<path d="M14.9119 5.44117L20.0589 10.5882" stroke="#28292C" stroke-miterlimit="10" stroke-linecap="round" stroke-linejoin="round"/>
<path d="M13.4412 6.91179L18.5882 12.0589" stroke="#28292C" stroke-miterlimit="10" stroke-linecap="round" stroke-linejoin="round"/>
<path d="M13.4412 4.70588C13.2206 5.14706 12.4853 5.44118 11.9706 5.44118C11.1618 5.44118 10.5 4.77941 10.5 3.97059C10.5 3.16176 11.1618 2.5 11.9706 2.5" stroke="#28292C" stroke-miterlimit="10" stroke-linecap="round" stroke-linejoin="round"/>
</svg>
