<?xml version="1.0" encoding="UTF-8" standalone="no"?>
<svg
   width="24"
   height="24"
   viewBox="0 0 24 24"
   fill="none"
   version="1.1"
   id="svg8"
   xml:space="preserve"
   xmlns="http://www.w3.org/2000/svg"
   xmlns:svg="http://www.w3.org/2000/svg"><defs
     id="defs8" /><path
     d="M9.97907 22.707L10.9581 19.7698L20.0961 10.6318L22.0543 12.5899L12.9163 21.7279C12.6552 21.989 10.7406 22.3806 9.97907 22.707Z"
     fill="white"
     id="path6" /><path
     d="M22.707 11.9372C22.5021 12.1421 22.2837 12.3605 22.0543 12.5899M20.7489 9.97907L20.0961 10.6318M20.0961 10.6318L10.9581 19.7698L9.97907 22.707C10.7406 22.3806 12.6552 21.989 12.9163 21.7279C13.1604 21.4838 18.7501 15.8941 22.0543 12.5899M20.0961 10.6318L22.0543 12.5899"
     stroke="#28292C"
     stroke-linejoin="round"
     id="path7" /><path
     d="M22.707 11.9372C24.0125 10.6318 22.0543 8.67366 20.7489 9.97909L20.0962 10.6318L22.0543 12.5899L22.707 11.9372Z"
     fill="white"
     stroke="#28292C"
     stroke-linejoin="round"
     id="path8" /><style
     type="text/css"
     id="style1">
	.st0{fill:none;stroke:#263238;stroke-linecap:round;stroke-miterlimit:10;}
	.st1{fill:none;stroke:#263238;stroke-linecap:round;stroke-linejoin:round;stroke-miterlimit:10;}
	.st2{fill:none;stroke:#263238;stroke-miterlimit:10;}
</style><g
     id="g19"
     transform="matrix(1.0000235,0,0,1.0000235,-0.50022351,-0.50022351)"
     style="fill:none;stroke:#28292c;stroke-width:0.9996;stroke-dasharray:none;stroke-opacity:1">
		<path
   class="st0"
   d="M 9.5,6.2"
   id="path1-1"
   style="stroke:#28292c;stroke-width:0.9996;stroke-dasharray:none;stroke-opacity:1" />
		<line
   class="st0"
   x1="9.5"
   y1="16.5"
   x2="9.5"
   y2="8.5"
   id="line1"
   style="stroke:#28292c;stroke-width:0.9996;stroke-dasharray:none;stroke-opacity:1" />
		<line
   class="st1"
   x1="9.5"
   y1="13.5"
   x2="6.5"
   y2="10.5"
   id="line2"
   style="stroke:#28292c;stroke-width:0.9996;stroke-dasharray:none;stroke-opacity:1" />
		<path
   class="st2"
   d="M 5.5,9.5"
   id="path2-0"
   style="stroke:#28292c;stroke-width:0.9996;stroke-dasharray:none;stroke-opacity:1" />
		<path
   class="st2"
   d="M 6.5,10.5"
   id="path3-4"
   style="stroke:#28292c;stroke-width:0.9996;stroke-dasharray:none;stroke-opacity:1" />
		<line
   class="st0"
   x1="6.5"
   y1="10.5"
   x2="6.5"
   y2="8.5"
   id="line3"
   style="stroke:#28292c;stroke-width:0.9996;stroke-dasharray:none;stroke-opacity:1" />
		<line
   class="st0"
   x1="6.5"
   y1="10.5"
   x2="4.5"
   y2="10.5"
   id="line4"
   style="stroke:#28292c;stroke-width:0.9996;stroke-dasharray:none;stroke-opacity:1" />
		<path
   class="st1"
   d="M 9.5,7.5"
   id="path4"
   style="stroke:#28292c;stroke-width:0.9996;stroke-dasharray:none;stroke-opacity:1" />
		<g
   id="g9"
   style="stroke:#28292c;stroke-width:0.9996;stroke-dasharray:none;stroke-opacity:1">
			<path
   class="st1"
   d="M 10.5,12.1"
   id="path5"
   style="stroke:#28292c;stroke-width:0.9996;stroke-dasharray:none;stroke-opacity:1" />
			<path
   class="st1"
   d="M 6.5,5.5"
   id="path6-0"
   style="stroke:#28292c;stroke-width:0.9996;stroke-dasharray:none;stroke-opacity:1" />
			<path
   class="st1"
   d="M 9.5,2.5"
   id="path7-7"
   style="stroke:#28292c;stroke-width:0.9996;stroke-dasharray:none;stroke-opacity:1" />
			<path
   class="st1"
   d="m 5.5,5.5 c -2.2,0 -4,1.8 -4,4 0,2.2 1.8,4 4,4 1,0 2,0 3,-1"
   id="path8-8"
   style="stroke:#28292c;stroke-width:0.9996;stroke-dasharray:none;stroke-opacity:1" />
			<path
   class="st1"
   d="M 5.5,5.5"
   id="path9"
   style="stroke:#28292c;stroke-width:0.9996;stroke-dasharray:none;stroke-opacity:1" />
		</g>
		<line
   class="st1"
   x1="9.5"
   y1="13.5"
   x2="12.6"
   y2="10.5"
   id="line9"
   style="stroke:#28292c;stroke-width:0.9996;stroke-dasharray:none;stroke-opacity:1" />
		<path
   class="st2"
   d="M 13.5,9.5"
   id="path10"
   style="stroke:#28292c;stroke-width:0.9996;stroke-dasharray:none;stroke-opacity:1" />
		<path
   class="st2"
   d="M 12.5,9.5"
   id="path11"
   style="stroke:#28292c;stroke-width:0.9996;stroke-dasharray:none;stroke-opacity:1" />
		<line
   class="st0"
   x1="12.6"
   y1="10.5"
   x2="14.5"
   y2="10.5"
   id="line11"
   style="stroke:#28292c;stroke-width:0.9996;stroke-dasharray:none;stroke-opacity:1" />
		<line
   class="st0"
   x1="12.6"
   y1="10.5"
   x2="14.6"
   y2="8.5"
   id="line12"
   style="stroke:#28292c;stroke-width:0.9996;stroke-dasharray:none;stroke-opacity:1" />
		<g
   id="g15"
   style="stroke:#28292c;stroke-width:0.9996;stroke-dasharray:none;stroke-opacity:1">
			<path
   class="st1"
   d="M 8.5,12.1"
   id="path12"
   style="stroke:#28292c;stroke-width:0.9996;stroke-dasharray:none;stroke-opacity:1" />
			<path
   class="st1"
   d="M 12.5,5.5"
   id="path13"
   style="stroke:#28292c;stroke-width:0.9996;stroke-dasharray:none;stroke-opacity:1" />
			<path
   class="st1"
   d="M 9.5,2.5"
   id="path14"
   style="stroke:#28292c;stroke-width:0.9996;stroke-dasharray:none;stroke-opacity:1" />
			<path
   class="st1"
   d="m 13.5,5.5 c 2.2,0 4,1.8 4,4 0,2.2 -1.8,4 -4,4 -1,0 -2,0 -3,-1"
   id="path15"
   style="stroke:#28292c;stroke-width:0.9996;stroke-dasharray:none;stroke-opacity:1" />
		</g>
		<path
   class="st1"
   d="m 5.5,5.5 c 0,-2.2 1.8,-4 4,-4 2.2,0 4,1.8 4,4"
   id="path16"
   style="stroke:#28292c;stroke-width:0.9996;stroke-dasharray:none;stroke-opacity:1" />
		<path
   class="st0"
   d="M 9.5,16.5"
   id="path17"
   style="stroke:#28292c;stroke-width:0.9996;stroke-dasharray:none;stroke-opacity:1" />
		<line
   class="st0"
   x1="6.5"
   y1="16.5"
   x2="12.5"
   y2="16.5"
   id="line17"
   style="stroke:#28292c;stroke-width:0.9996;stroke-dasharray:none;stroke-opacity:1" />
		<line
   class="st1"
   x1="9.5"
   y1="8.5"
   x2="11.5"
   y2="7.5"
   id="line18"
   style="stroke:#28292c;stroke-width:0.9996;stroke-dasharray:none;stroke-opacity:1" />
		<line
   class="st1"
   x1="9.5"
   y1="8.5"
   x2="8.5"
   y2="6.5"
   id="line19"
   style="stroke:#28292c;stroke-width:0.9996;stroke-dasharray:none;stroke-opacity:1" />
	</g></svg>
