<svg width="24" height="24" viewBox="0 0 24 24" fill="none" xmlns="http://www.w3.org/2000/svg"><circle cx="8" cy="8" r="2.6" fill="white" stroke="#28292C"/><path d="M8 1.6v2M8 12.4v2M1.6 8h2M12.4 8h2M3.4 3.4l1.4 1.4M11.2 11.2l1.4 1.4M12.6 3.4l-1.4 1.4M4.8 11.2l-1.4 1.4" stroke="#28292C" stroke-linecap="round"/><path d="M9.97907 22.707L10.9581 19.7698L18.6 12.09L20.55 14.04L12.9163 21.7279C12.6552 21.989 10.7406 22.3806 9.97907 22.707Z" fill="white" stroke="#28292C" stroke-linejoin="round"/><path d="M21.2 13.39C22.5 12.09 20.55 10.13 19.24 11.44L18.6 12.09L20.55 14.04L21.2 13.39Z" fill="white" stroke="#28292C" stroke-linejoin="round"/></svg>
