<svg width="24" height="24" viewBox="0 0 24 24" fill="none" xmlns="http://www.w3.org/2000/svg">
<path d="M6.17653 6.17647C5.66061 6.95035 4.33829 7.27942 3.23535 6.91177V8.38236L9.853 15L15.0001 9.85295L8.38241 3.2353H5.44123C6.54418 3.60295 6.91182 5.07353 6.17653 6.17647Z" fill="white"/>
<path d="M5.44123 3.2353H8.38241L15.0001 9.85295L9.853 15L3.23535 8.38236V6.91177" stroke="#28292C" stroke-miterlimit="10" stroke-linecap="round" stroke-linejoin="round"/>
<path d="M6.91187 5.44117L12.0589 10.5882" stroke="#28292C" stroke-miterlimit="10" stroke-linecap="round" stroke-linejoin="round"/>
<path d="M5.44116 6.91179L10.5882 12.0589" stroke="#28292C" stroke-miterlimit="10" stroke-linecap="round" stroke-linejoin="round"/>
<path d="M5.44118 4.70588C5.22059 5.14706 4.48529 5.44118 3.97059 5.44118C3.16176 5.44118 2.5 4.77941 2.5 3.97059C2.5 3.16176 3.16176 2.5 3.97059 2.5" stroke="#28292C" stroke-miterlimit="10" stroke-linecap="round" stroke-linejoin="round"/>
<path d="M9.97907 22.707L10.9581 19.7698L20.0961 10.6318L22.0543 12.5899L12.9163 21.7279C12.6552 21.989 10.7406 22.3806 9.97907 22.707Z" fill="white"/>
<path d="M22.707 11.9372C22.5021 12.1421 22.2837 12.3605 22.0543 12.5899M20.7489 9.97907L20.0961 10.6318M20.0961 10.6318L10.9581 19.7698L9.97907 22.707C10.7406 22.3806 12.6552 21.989 12.9163 21.7279C13.1604 21.4838 18.7501 15.8941 22.0543 12.5899M20.0961 10.6318L22.0543 12.5899" stroke="#28292C" stroke-linejoin="round"/>
<path d="M22.707 11.9372C24.0125 10.6318 22.0543 8.67366 20.7489 9.97909L20.0962 10.6318L22.0543 12.5899L22.707 11.9372Z" fill="white" stroke="#28292C" stroke-linejoin="round"/>
</svg>
