<svg width="24" height="24" viewBox="0 0 24 24" fill="none" xmlns="http://www.w3.org/2000/svg"><path d="M8 2.5a5.5 5.5 0 0 1 5.5 5.5c0 3.5-5.5 9-5.5 9S2.5 11.5 2.5 8A5.5 5.5 0 0 1 8 2.5Z" fill="white" stroke="#28292C" stroke-linejoin="round"/><circle cx="8" cy="8" r="2" stroke="#28292C"/><path d="M9.97907 22.707L10.9581 19.7698L18.6 12.09L20.55 14.04L12.9163 21.7279C12.6552 21.989 10.7406 22.3806 9.97907 22.707Z" fill="white" stroke="#28292C" stroke-linejoin="round"/><path d="M21.2 13.39C22.5 12.09 20.55 10.13 19.24 11.44L18.6 12.09L20.55 14.04L21.2 13.39Z" fill="white" stroke="#28292C" stroke-linejoin="round"/></svg>
