<svg width="24" height="24" viewBox="0 0 24 24" fill="none" xmlns="http://www.w3.org/2000/svg">
<path d="M1.5 3.00001C1.5 2.70001 1.8 2.50001 2 2.50001L16.1 1.10001C16.4 1.10001 16.5 1.20001 16.5 1.50001V10.5C16.5 10.8 16.3 11 16.1 11.1L1.9 15.1C1.7 15.2 1.5 15 1.5 14.8V3.00001Z" fill="white" stroke="#28292C" stroke-miterlimit="10" stroke-linecap="round" stroke-linejoin="round"/>
<path d="M9.97907 22.707L10.9581 19.7698L20.0961 10.6318L22.0543 12.5899L12.9163 21.7279C12.6552 21.989 10.7406 22.3806 9.97907 22.707Z" fill="white"/>
<path d="M22.707 11.9372C22.5021 12.1421 22.2837 12.3605 22.0543 12.5899M20.7489 9.97907L20.0961 10.6318M20.0961 10.6318L10.9581 19.7698L9.97907 22.707C10.7406 22.3806 12.6552 21.989 12.9163 21.7279C13.1604 21.4838 18.7501 15.8941 22.0543 12.5899M20.0961 10.6318L22.0543 12.5899" stroke="#28292C" stroke-linejoin="round"/>
<path d="M22.707 11.9372C24.0125 10.6318 22.0543 8.67366 20.7489 9.97909L20.0962 10.6318L22.0543 12.5899L22.707 11.9372Z" fill="white" stroke="#28292C" stroke-linejoin="round"/>
</svg>
