<svg width="24" height="24" viewBox="0 0 24 24" fill="none" xmlns="http://www.w3.org/2000/svg">
<mask id="mask0_204_129" style="mask-type:alpha" maskUnits="userSpaceOnUse" x="2" y="2" width="20" height="20">
<circle cx="12" cy="12" r="10" fill="#D9D9D9"/>
</mask>
<g mask="url(#mask0_204_129)">
<path d="M22 2H2V22H22V2Z" fill="#202225"/>
<path d="M11.3121 12C11.6918 12 11.9996 11.6922 11.9996 11.3125C11.9996 10.9328 11.6918 10.625 11.3121 10.625C10.9324 10.625 10.6246 10.9328 10.6246 11.3125C10.6246 11.6922 10.9324 12 11.3121 12Z" fill="#FAFBFB"/>
<path d="M22 2H12H2V8.6875C2 8.6875 2.4375 8.6875 2.5625 8.6875C2.9375 8.6875 3.375 8.625 3.5 8.5625C4.25 8.25 5.0625 8.0625 5.9375 7.9375C6.125 7.3125 6.4375 6.8125 7.0625 6.8125C7.6875 6.875 7.6875 7.25 7.5 7.8125C12.125 7.6875 17.6875 9.8125 19.75 14.4375C19.875 14.75 19.1875 14.9375 18.875 15.1875C18.5625 15.4375 16.6875 13.6875 16.5625 13.8125C16.4375 14 12.0625 16 8 16.125C5.9375 16.1875 4.625 16.875 3.9375 17.9375C2.75 19.75 2.8125 22 2.8125 22H9.5625H12H17.8125H22V12V12.0625V12V11.9375V12V2Z" fill="#FAFBFB"/>
</g>
</svg>
