<svg width="24" height="24" viewBox="0 0 24 24" fill="none" xmlns="http://www.w3.org/2000/svg">
<path d="M6 20C6 19.4696 5.78929 18.9609 5.41421 18.5858C5.03914 18.2107 4.53043 18 4 18C3.46957 18 2.96086 18.2107 2.58579 18.5858C2.21071 18.9609 2 19.4696 2 20C2 20.5304 2.21071 21.0391 2.58579 21.4142C2.96086 21.7893 3.46957 22 4 22C4.53043 22 5.03914 21.7893 5.41421 21.4142C5.78929 21.0391 6 20.5304 6 20Z" fill="#28292C" stroke="#28292C" stroke-linecap="round" stroke-linejoin="round"/>
<path d="M16 4C16 3.46957 15.7893 2.96086 15.4142 2.58579C15.0391 2.21071 14.5304 2 14 2C13.4696 2 12.9609 2.21071 12.5858 2.58579C12.2107 2.96086 12 3.46957 12 4C12 4.53043 12.2107 5.03914 12.5858 5.41421C12.9609 5.78929 13.4696 6 14 6C14.5304 6 15.0391 5.78929 15.4142 5.41421C15.7893 5.03914 16 4.53043 16 4Z" fill="white" stroke="#28292C" stroke-linecap="round" stroke-linejoin="round"/>
<path d="M16 20C16 19.4696 15.7893 18.9609 15.4142 18.5858C15.0391 18.2107 14.5304 18 14 18C13.4696 18 12.9609 18.2107 12.5858 18.5858C12.2107 18.9609 12 19.4696 12 20C12 20.5304 12.2107 21.0391 12.5858 21.4142C12.9609 21.7893 13.4696 22 14 22C14.5304 22 15.0391 21.7893 15.4142 21.4142C15.7893 21.0391 16 20.5304 16 20Z" fill="#28292C" stroke="#28292C" stroke-linecap="round" stroke-linejoin="round"/>
<path d="M11 12C11 11.4696 10.7893 10.9609 10.4142 10.5858C10.0391 10.2107 9.53043 10 9 10C8.46957 10 7.96086 10.2107 7.58579 10.5858C7.21071 10.9609 7 11.4696 7 12C7 12.5304 7.21071 13.0391 7.58579 13.4142C7.96086 13.7893 8.46957 14 9 14C9.53043 14 10.0391 13.7893 10.4142 13.4142C10.7893 13.0391 11 12.5304 11 12Z" fill="#28292C" stroke="#28292C" stroke-linecap="round" stroke-linejoin="round"/>
<path d="M21 12C21 11.4696 20.7893 10.9609 20.4142 10.5858C20.0391 10.2107 19.5304 10 19 10C18.4696 10 17.9609 10.2107 17.5858 10.5858C17.2107 10.9609 17 11.4696 17 12C17 12.5304 17.2107 13.0391 17.5858 13.4142C17.9609 13.7893 18.4696 14 19 14C19.5304 14 20.0391 13.7893 20.4142 13.4142C20.7893 13.0391 21 12.5304 21 12Z" fill="white" stroke="#28292C" stroke-linecap="round" stroke-linejoin="round"/>
<path d="M5.05798 18.306L7.93798 13.7" stroke="#28292C" stroke-linecap="round" stroke-linejoin="round"/>
<path d="M10.061 10.303L12.938 5.699" stroke="#28292C" stroke-linecap="round" stroke-linejoin="round"/>
<path d="M10.0649 13.705L12.9409 18.305" stroke="#28292C" stroke-linecap="round" stroke-linejoin="round"/>
<path d="M15.063 5.7L17.944 10.31" stroke="#28292C" stroke-linecap="round" stroke-linejoin="round"/>
</svg>
