<svg width="24" height="24" viewBox="0 0 24 24" fill="none" xmlns="http://www.w3.org/2000/svg">
<path d="M1.5 3.00001C1.5 2.70001 1.8 2.50001 2 2.50001L16.1 1.10001C16.4 1.10001 16.5 1.20001 16.5 1.50001V10.5C16.5 10.8 16.3 11 16.1 11.1L1.9 15.1C1.7 15.2 1.5 15 1.5 14.8V3.00001Z" fill="white" stroke="#28292C" stroke-miterlimit="10" stroke-linecap="round" stroke-linejoin="round"/>
<path d="M9.5 16C9.5 16.8536 9.66813 17.6988 9.99478 18.4874C10.3214 19.2761 10.8002 19.9926 11.4038 20.5962C12.0074 21.1998 12.7239 21.6786 13.5126 22.0052C14.3012 22.3319 15.1464 22.5 16 22.5C16.8536 22.5 17.6988 22.3319 18.4874 22.0052C19.2761 21.6786 19.9926 21.1998 20.5962 20.5962C21.1998 19.9926 21.6786 19.2761 22.0052 18.4874C22.3319 17.6988 22.5 16.8536 22.5 16C22.5 15.1464 22.3319 14.3012 22.0052 13.5126C21.6786 12.7239 21.1998 12.0074 20.5962 11.4038C19.9926 10.8002 19.2761 10.3214 18.4874 9.99478C17.6988 9.66813 16.8536 9.5 16 9.5C15.1464 9.5 14.3012 9.66813 13.5126 9.99478C12.7239 10.3214 12.0074 10.8002 11.4038 11.4038C10.8002 12.0074 10.3214 12.7239 9.99478 13.5126C9.66813 14.3012 9.5 15.1464 9.5 16Z" fill="white" stroke="#28292C" stroke-linecap="round" stroke-linejoin="round"/>
<path d="M13.1112 18.8889L14.5557 14.5556L18.889 13.1111L17.4445 17.4444L13.1112 18.8889Z" stroke="#28292C" stroke-linecap="round" stroke-linejoin="round"/>
<path d="M16 9.5V10.9444" stroke="#28292C" stroke-linecap="round" stroke-linejoin="round"/>
<path d="M16 21.0556V22.5" stroke="#28292C" stroke-linecap="round" stroke-linejoin="round"/>
<path d="M9.5 16H10.9444" stroke="#28292C" stroke-linecap="round" stroke-linejoin="round"/>
<path d="M21.0555 16H22.5" stroke="#28292C" stroke-linecap="round" stroke-linejoin="round"/>
</svg>
