<svg width="24" height="24" viewBox="0 0 24 24" fill="none" xmlns="http://www.w3.org/2000/svg">
<path d="M11.5 1.5V1C11.5 1 11.8 0.5 12.1 0.5H13.8C14.2 0.5 14.4 0.8 14.4 1.1V6.8C14.4 7.2 14.7 7.4 15 7.4H19.7C20.1 7.4 20.3 7.7 20.3 8V16.7C20.3 17.1 20 17.3 19.7 17.3H15C14.6 17.3 14.4 17 14.4 16.7V16C14.4 15.6 14.1 15.4 13.8 15.4H5.1C4.7 15.4 4.5 15.7 4.5 16V16.7C4.5 17.1 4.2 17.3 3.9 17.3H1.1C0.7 17.3 0.5 17 0.5 16.7V1.1C0.5 0.7 0.8 0.5 1.1 0.5H3.8C4.2 0.5 4.4 0.7 4.4 1C4.4 1.3 4.7 1.5 5 1.5H11.5Z" fill="white"/>
<path d="M11.5 1.5V1C11.5 1 11.8 0.5 12.1 0.5H13.8C14.2 0.5 14.4 0.8 14.4 1.1V6.8C14.4 7.2 14.7 7.4 15 7.4H19.7C20.1 7.4 20.3 7.7 20.3 8V16.7C20.3 17.1 20 17.3 19.7 17.3H15C14.6 17.3 14.4 17 14.4 16.7V16C14.4 15.6 14.1 15.4 13.8 15.4H5.1C4.7 15.4 4.5 15.7 4.5 16V16.7C4.5 17.1 4.2 17.3 3.9 17.3H1.1C0.7 17.3 0.5 17 0.5 16.7V1.1C0.5 0.7 0.8 0.5 1.1 0.5H3.8C4.2 0.5 4.4 0.7 4.4 1C4.4 1.3 4.7 1.5 5 1.5H11.5Z" fill="white" stroke="#28292C" stroke-miterlimit="10" stroke-linecap="round" stroke-linejoin="round"/>
<path d="M5.5 7.5C8.2 7.5 11.5 5.5 11.5 1.5Z" fill="white"/>
<path d="M5.5 7.5C8.2 7.5 11.5 5.5 11.5 1.5" stroke="#28292C" stroke-miterlimit="10" stroke-linecap="round" stroke-linejoin="round"/>
<path d="M5.5 1.5V7.5" stroke="#28292C" stroke-miterlimit="10" stroke-linecap="round" stroke-linejoin="round"/>
<path d="M7.5 12.5H13.5" stroke="#28292C" stroke-miterlimit="10" stroke-linecap="round" stroke-linejoin="round"/>
<path d="M7.5 10.5H13.6" stroke="#28292C" stroke-miterlimit="10" stroke-linecap="round" stroke-linejoin="round"/>
<path d="M12.5 10.5C12.5 9.87868 12.8787 9.5 13.5 9.5H16.5H21.5C22.1213 9.5 22.5 9.87868 22.5 10.5V21.6296C22.5 22.251 22.1213 22.5 21.5 22.5H13.5C12.8787 22.5 12.5 22.251 12.5 21.6296V10.5Z" fill="white"/>
<path d="M17 12.5H21M17 15.5H21M17 18.5H21M14.51 12.5H14.5M14.5 15.5H14.51M14.5 18.5H14.51M21.5 9.5C22.1213 9.5 22.5 9.87868 22.5 10.5V21.6296C22.5 22.251 22.1213 22.5 21.5 22.5H13.5C12.8787 22.5 12.5 22.251 12.5 21.6296V10.5C12.5 9.87868 12.8787 9.5 13.5 9.5H16.5H21.5Z" stroke="#28292C" stroke-linecap="round" stroke-linejoin="round"/>
</svg>
