<?xml version="1.0" encoding="UTF-8" standalone="no"?>

<svg
   version="1.1"
   id="Layer_2"
   x="0px"
   y="0px"
   viewBox="0 0 32 32"
   enable-background="new 0 0 32 32"
   xml:space="preserve"
   sodipodi:docname="tapir_discord.svg"
   inkscape:version="1.1.1 (3bf5ae0d25, 2021-09-20)"
   xmlns:inkscape="http://www.inkscape.org/namespaces/inkscape"
   xmlns:sodipodi="http://sodipodi.sourceforge.net/DTD/sodipodi-0.dtd"
   xmlns="http://www.w3.org/2000/svg"
   xmlns:svg="http://www.w3.org/2000/svg"><defs
   id="defs13" /><sodipodi:namedview
   id="namedview11"
   pagecolor="#ffffff"
   bordercolor="#666666"
   borderopacity="1.0"
   inkscape:pageshadow="2"
   inkscape:pageopacity="0.0"
   inkscape:pagecheckerboard="0"
   showgrid="false"
   inkscape:zoom="18.959301"
   inkscape:cx="12.737812"
   inkscape:cy="14.161915"
   inkscape:window-width="1920"
   inkscape:window-height="1017"
   inkscape:window-x="-8"
   inkscape:window-y="-8"
   inkscape:window-maximized="1"
   inkscape:current-layer="Layer_2" />
<rect
   x="0"
   y="0"
   fill="#202225"
   width="32"
   height="32"
   id="rect2" />
<g
   id="g8"
   style="stroke:none;fill:#fafafa;fill-opacity:1">
	<circle
   fill="#FAFBFB"
   cx="14.9"
   cy="14.9"
   r="1.1"
   id="circle4"
   style="stroke:none;fill:#fafafa;fill-opacity:1" />
	<path
   fill="#FAFBFB"
   d="M32,0H16H0v10.7c0,0,0.7,0,0.9,0c0.6,0,1.3-0.1,1.5-0.2c1.2-0.5,2.5-0.8,3.9-1c0.3-1,0.8-1.8,1.8-1.8   c1,0.1,1,0.7,0.7,1.6c7.4-0.2,16.3,3.2,19.6,10.6c0.2,0.5-0.9,0.8-1.4,1.2c-0.5,0.4-3.5-2.4-3.7-2.2c-0.2,0.3-7.2,3.5-13.7,3.7   c-3.3,0.1-5.4,1.2-6.5,2.9C1.2,28.4,1.3,32,1.3,32h10.8H16h9.3H32V16c0,0,0,0.1,0,0.1c0,0,0-0.1,0-0.1s0-0.1,0-0.1c0,0,0,0.1,0,0.1   V0z"
   id="path6"
   style="stroke:none;fill:#fafafa;fill-opacity:1" />
</g>
</svg>
