<?xml version="1.0" encoding="UTF-8" standalone="no"?>
<svg
   version="1.1"
   id="Layer_2"
   x="0px"
   y="0px"
   viewBox="0 0 1600 900"
   enable-background="new 0 0 1600 900"
   xml:space="preserve"
   sodipodi:docname="tapir_background.svg"
   inkscape:version="1.1.1 (3bf5ae0d25, 2021-09-20)"
   inkscape:export-filename="C:\Users\Viktor\GitRepos\tapir-archicad-automation\logo\pack\svg\tapir_background_1600_900.png"
   inkscape:export-xdpi="96"
   inkscape:export-ydpi="96"
   xmlns:inkscape="http://www.inkscape.org/namespaces/inkscape"
   xmlns:sodipodi="http://sodipodi.sourceforge.net/DTD/sodipodi-0.dtd"
   xmlns="http://www.w3.org/2000/svg"
   xmlns:svg="http://www.w3.org/2000/svg"><defs
   id="defs29" /><sodipodi:namedview
   id="namedview27"
   pagecolor="#ffffff"
   bordercolor="#666666"
   borderopacity="1.0"
   inkscape:pageshadow="2"
   inkscape:pageopacity="0.0"
   inkscape:pagecheckerboard="0"
   showgrid="false"
   inkscape:zoom="0.6725"
   inkscape:cx="657.99257"
   inkscape:cy="396.28253"
   inkscape:window-width="1920"
   inkscape:window-height="1017"
   inkscape:window-x="-8"
   inkscape:window-y="-8"
   inkscape:window-maximized="1"
   inkscape:current-layer="Layer_2" />
<circle
   display="none"
   cx="442.1"
   cy="1013.8"
   r="165.6"
   id="circle2" />
<rect
   x="0"
   fill="#202225"
   width="1600"
   height="900"
   id="rect4" />
<g
   id="g24"
   style="fill:#fafafa;fill-opacity:1">
	<g
   id="g10"
   style="fill:#fafafa;fill-opacity:1">
		<circle
   fill="#FAFBFB"
   cx="641.8"
   cy="436.2"
   r="3.2"
   id="circle6"
   style="fill:#fafafa;fill-opacity:1" />
		<path
   fill="#FAFBFB"
   d="M645,391.8c-20.8,0-38.5,13.3-45,31.9c2-0.1,3.6-0.2,4.5-0.6c3.5-1.4,7.5-2.4,11.7-3    c0.8-3,2.5-5.4,5.2-5.3c3,0.2,3.1,2,2.2,4.7c22.1-0.5,48.7,9.4,58.3,31.6c0.7,1.5-2.8,2.3-4.2,3.5c-1.4,1.2-10.4-7.2-11.1-6.4    c-0.7,0.8-21.3,10.3-40.8,10.9c-9.8,0.3-15.2,4.1-19.3,8.6c8.7,11.8,22.7,19.5,38.4,19.5c26.3,0,47.7-21.3,47.7-47.7    C692.7,413.1,671.4,391.8,645,391.8z"
   id="path8"
   style="fill:#fafafa;fill-opacity:1" />
	</g>
	<g
   id="g22"
   style="fill:#fafafa;fill-opacity:1">
		<path
   fill="#FAFBFB"
   d="M728.2,424.1v38.8c0,2.6,0.6,4.5,1.8,5.7c1.2,1.1,3.3,1.7,6.3,1.7h8.9v12.1h-11.4c-6.5,0-11.5-1.5-15-4.6    c-3.5-3.1-5.2-8-5.2-14.9v-38.8h-8.3v-11.8h8.3v-17.4h14.6v17.4h17v11.8H728.2z"
   id="path12"
   style="fill:#fafafa;fill-opacity:1" />
		<path
   fill="#FAFBFB"
   d="M758.2,428.3c2.9-5.4,6.9-9.6,11.9-12.6c5-3,10.6-4.5,16.7-4.5c5.5,0,10.3,1.1,14.4,3.2    c4.1,2.2,7.4,4.9,9.9,8.1v-10.2h14.6v70h-14.6v-10.4c-2.5,3.3-5.8,6.1-10,8.3c-4.2,2.2-9.1,3.3-14.5,3.3c-6,0-11.5-1.5-16.5-4.6    c-5-3.1-9-7.4-11.9-13c-2.9-5.5-4.4-11.8-4.4-18.9C753.8,439.9,755.2,433.7,758.2,428.3z M808.1,434.6c-2-3.6-4.6-6.3-7.8-8.1    c-3.2-1.9-6.7-2.8-10.4-2.8c-3.7,0-7.2,0.9-10.4,2.7c-3.2,1.8-5.8,4.5-7.8,8c-2,3.5-3,7.7-3,12.5c0,4.8,1,9.1,3,12.7    c2,3.6,4.6,6.4,7.9,8.3c3.3,1.9,6.7,2.9,10.4,2.9c3.7,0,7.2-0.9,10.4-2.8c3.2-1.9,5.8-4.6,7.8-8.2c2-3.6,3-7.8,3-12.6    C811.1,442.4,810.1,438.2,808.1,434.6z"
   id="path14"
   style="fill:#fafafa;fill-opacity:1" />
		<path
   fill="#FAFBFB"
   d="M869.3,414.4c4.2-2.2,9-3.3,14.4-3.3c6.1,0,11.7,1.5,16.7,4.5c5,3,9,7.2,11.9,12.6    c2.9,5.4,4.3,11.7,4.3,18.7c0,7-1.4,13.3-4.3,18.9c-2.9,5.6-6.8,9.9-11.9,13c-5,3.1-10.6,4.6-16.7,4.6c-5.3,0-10.1-1.1-14.2-3.2    c-4.2-2.2-7.5-4.9-10.2-8.1v43.5h-14.5V412.2h14.5v10.3C861.7,419.3,865.1,416.6,869.3,414.4z M898.9,434.4c-2-3.5-4.6-6.2-7.9-8    c-3.3-1.8-6.8-2.7-10.5-2.7c-3.6,0-7.1,0.9-10.4,2.8c-3.3,1.9-5.9,4.6-7.9,8.1c-2,3.6-3,7.8-3,12.6c0,4.8,1,9,3,12.6    c2,3.6,4.6,6.3,7.9,8.2c3.3,1.9,6.7,2.8,10.4,2.8c3.7,0,7.2-1,10.5-2.9c3.3-1.9,5.9-4.7,7.9-8.3c2-3.6,3-7.9,3-12.7    C901.9,442.1,900.9,437.9,898.9,434.4z"
   id="path16"
   style="fill:#fafafa;fill-opacity:1" />
		<path
   fill="#FAFBFB"
   d="M931.7,400.3c-1.8-1.8-2.7-4-2.7-6.6c0-2.6,0.9-4.8,2.7-6.6c1.8-1.8,4-2.7,6.6-2.7c2.5,0,4.7,0.9,6.5,2.7    c1.8,1.8,2.7,4,2.7,6.6c0,2.6-0.9,4.8-2.7,6.6c-1.8,1.8-3.9,2.7-6.5,2.7C935.7,403,933.5,402.1,931.7,400.3z M945.5,412.2v70H931    v-70H945.5z"
   id="path18"
   style="fill:#fafafa;fill-opacity:1" />
		<path
   fill="#FAFBFB"
   d="M987.5,414.1c3.5-2,7.7-3,12.5-3v15h-3.7c-5.7,0-10,1.4-12.9,4.3c-2.9,2.9-4.4,7.9-4.4,15v36.9h-14.5v-70    H979v10.2C981.1,418.9,984,416.1,987.5,414.1z"
   id="path20"
   style="fill:#fafafa;fill-opacity:1" />
	</g>
</g>
</svg>
