<?xml version="1.0" encoding="UTF-8" standalone="no"?>
<svg
   version="1.1"
   id="Layer_2"
   x="0px"
   y="0px"
   viewBox="0 0 1000 300"
   enable-background="new 0 0 1600 900"
   xml:space="preserve"
   sodipodi:docname="tapir_bar.svg"
   inkscape:version="1.2.1 (9c6d41e410, 2022-07-14)"
   inkscape:export-filename="..\png\tapir_bar_2000_600.png"
   inkscape:export-xdpi="192"
   inkscape:export-ydpi="192"
   width="1000"
   height="300"
   xmlns:inkscape="http://www.inkscape.org/namespaces/inkscape"
   xmlns:sodipodi="http://sodipodi.sourceforge.net/DTD/sodipodi-0.dtd"
   xmlns="http://www.w3.org/2000/svg"
   xmlns:svg="http://www.w3.org/2000/svg"><defs
   id="defs29" /><sodipodi:namedview
   id="namedview27"
   pagecolor="#ffffff"
   bordercolor="#666666"
   borderopacity="1.0"
   inkscape:pageshadow="2"
   inkscape:pageopacity="0.0"
   inkscape:pagecheckerboard="0"
   showgrid="false"
   inkscape:zoom="0.95105862"
   inkscape:cx="331.20987"
   inkscape:cy="96.734311"
   inkscape:window-width="1920"
   inkscape:window-height="1009"
   inkscape:window-x="1912"
   inkscape:window-y="-8"
   inkscape:window-maximized="1"
   inkscape:current-layer="Layer_2"
   inkscape:showpageshadow="2"
   inkscape:deskcolor="#d1d1d1" />
<circle
   display="none"
   cx="442.10001"
   cy="1013.8"
   r="165.60001"
   id="circle2" />
<rect
   x="0"
   fill="#202225"
   width="1000"
   height="300"
   id="rect4"
   y="0"
   style="stroke-width:0.456435" />
<g
   id="g24"
   style="fill:#fafafa;fill-opacity:1"
   transform="translate(-300,-300)">
	<g
   id="g10"
   style="fill:#fafafa;fill-opacity:1">
		<circle
   fill="#FAFBFB"
   cx="641.79999"
   cy="436.20001"
   r="3.2"
   id="circle6"
   style="fill:#fafafa;fill-opacity:1" />
		<path
   fill="#FAFBFB"
   d="m 645,391.8 c -20.8,0 -38.5,13.3 -45,31.9 2,-0.1 3.6,-0.2 4.5,-0.6 3.5,-1.4 7.5,-2.4 11.7,-3 0.8,-3 2.5,-5.4 5.2,-5.3 3,0.2 3.1,2 2.2,4.7 22.1,-0.5 48.7,9.4 58.3,31.6 0.7,1.5 -2.8,2.3 -4.2,3.5 -1.4,1.2 -10.4,-7.2 -11.1,-6.4 -0.7,0.8 -21.3,10.3 -40.8,10.9 -9.8,0.3 -15.2,4.1 -19.3,8.6 8.7,11.8 22.7,19.5 38.4,19.5 26.3,0 47.7,-21.3 47.7,-47.7 0.1,-26.4 -21.2,-47.7 -47.6,-47.7 z"
   id="path8"
   style="fill:#fafafa;fill-opacity:1" />
	</g>
	<g
   id="g22"
   style="fill:#fafafa;fill-opacity:1">
		<path
   fill="#FAFBFB"
   d="m 728.2,424.1 v 38.8 c 0,2.6 0.6,4.5 1.8,5.7 1.2,1.1 3.3,1.7 6.3,1.7 h 8.9 v 12.1 h -11.4 c -6.5,0 -11.5,-1.5 -15,-4.6 -3.5,-3.1 -5.2,-8 -5.2,-14.9 v -38.8 h -8.3 v -11.8 h 8.3 v -17.4 h 14.6 v 17.4 h 17 v 11.8 z"
   id="path12"
   style="fill:#fafafa;fill-opacity:1" />
		<path
   fill="#FAFBFB"
   d="m 758.2,428.3 c 2.9,-5.4 6.9,-9.6 11.9,-12.6 5,-3 10.6,-4.5 16.7,-4.5 5.5,0 10.3,1.1 14.4,3.2 4.1,2.2 7.4,4.9 9.9,8.1 v -10.2 h 14.6 v 70 h -14.6 v -10.4 c -2.5,3.3 -5.8,6.1 -10,8.3 -4.2,2.2 -9.1,3.3 -14.5,3.3 -6,0 -11.5,-1.5 -16.5,-4.6 -5,-3.1 -9,-7.4 -11.9,-13 -2.9,-5.5 -4.4,-11.8 -4.4,-18.9 0,-7.1 1.4,-13.3 4.4,-18.7 z m 49.9,6.3 c -2,-3.6 -4.6,-6.3 -7.8,-8.1 -3.2,-1.9 -6.7,-2.8 -10.4,-2.8 -3.7,0 -7.2,0.9 -10.4,2.7 -3.2,1.8 -5.8,4.5 -7.8,8 -2,3.5 -3,7.7 -3,12.5 0,4.8 1,9.1 3,12.7 2,3.6 4.6,6.4 7.9,8.3 3.3,1.9 6.7,2.9 10.4,2.9 3.7,0 7.2,-0.9 10.4,-2.8 3.2,-1.9 5.8,-4.6 7.8,-8.2 2,-3.6 3,-7.8 3,-12.6 -0.1,-4.8 -1.1,-9 -3.1,-12.6 z"
   id="path14"
   style="fill:#fafafa;fill-opacity:1" />
		<path
   fill="#FAFBFB"
   d="m 869.3,414.4 c 4.2,-2.2 9,-3.3 14.4,-3.3 6.1,0 11.7,1.5 16.7,4.5 5,3 9,7.2 11.9,12.6 2.9,5.4 4.3,11.7 4.3,18.7 0,7 -1.4,13.3 -4.3,18.9 -2.9,5.6 -6.8,9.9 -11.9,13 -5,3.1 -10.6,4.6 -16.7,4.6 -5.3,0 -10.1,-1.1 -14.2,-3.2 -4.2,-2.2 -7.5,-4.9 -10.2,-8.1 v 43.5 H 844.8 V 412.2 h 14.5 v 10.3 c 2.4,-3.2 5.8,-5.9 10,-8.1 z m 29.6,20 c -2,-3.5 -4.6,-6.2 -7.9,-8 -3.3,-1.8 -6.8,-2.7 -10.5,-2.7 -3.6,0 -7.1,0.9 -10.4,2.8 -3.3,1.9 -5.9,4.6 -7.9,8.1 -2,3.6 -3,7.8 -3,12.6 0,4.8 1,9 3,12.6 2,3.6 4.6,6.3 7.9,8.2 3.3,1.9 6.7,2.8 10.4,2.8 3.7,0 7.2,-1 10.5,-2.9 3.3,-1.9 5.9,-4.7 7.9,-8.3 2,-3.6 3,-7.9 3,-12.7 0,-4.8 -1,-9 -3,-12.5 z"
   id="path16"
   style="fill:#fafafa;fill-opacity:1" />
		<path
   fill="#FAFBFB"
   d="m 931.7,400.3 c -1.8,-1.8 -2.7,-4 -2.7,-6.6 0,-2.6 0.9,-4.8 2.7,-6.6 1.8,-1.8 4,-2.7 6.6,-2.7 2.5,0 4.7,0.9 6.5,2.7 1.8,1.8 2.7,4 2.7,6.6 0,2.6 -0.9,4.8 -2.7,6.6 -1.8,1.8 -3.9,2.7 -6.5,2.7 -2.6,0 -4.8,-0.9 -6.6,-2.7 z m 13.8,11.9 v 70 H 931 v -70 z"
   id="path18"
   style="fill:#fafafa;fill-opacity:1" />
		<path
   fill="#FAFBFB"
   d="m 987.5,414.1 c 3.5,-2 7.7,-3 12.5,-3 v 15 h -3.7 c -5.7,0 -10,1.4 -12.9,4.3 -2.9,2.9 -4.4,7.9 -4.4,15 v 36.9 h -14.5 v -70 H 979 v 10.2 c 2.1,-3.6 5,-6.4 8.5,-8.4 z"
   id="path20"
   style="fill:#fafafa;fill-opacity:1" />
	</g>
</g>
</svg>
