<?xml version="1.0" encoding="UTF-8" standalone="no"?>
<svg
   viewBox="0 0 24 24"
   version="1.1"
   enable-background="new 0 0 24.00 24.00"
   xml:space="preserve"
   id="svg1"
   xmlns="http://www.w3.org/2000/svg"
   xmlns:svg="http://www.w3.org/2000/svg"><defs
   id="defs1" />
	<path
   stroke="#263238"
   stroke-linecap="round"
   stroke-linejoin="round"
   stroke-width="1"
   d="M 8.1350243,20.664719 H 2.511135 V 1.511135 h 10.298892 l 5.901613,5.8144809 v 1.4365189 m -2.314357,2.3257922 h 1.851485 c 0,0 1.388615,0 1.388615,2.280188 v 1.368114 c 0,0 0,1.368113 1.851487,1.368113 v 1.368113 c -1.851487,0 -1.851487,1.368113 -1.851487,1.368113 v 1.368113 c 0,2.280189 -1.388615,2.280189 -1.388615,2.280189 h -1.851485 m -2.31436,0 h -1.851486 c 0,0 -1.388614,0 -1.388614,-2.280189 v -1.368113 c 0,0 0,-1.368113 -1.851486,-1.368113 v -1.368113 c 1.851486,0 1.851486,-1.368113 1.851486,-1.368113 v -1.368114 c 0,-2.280188 1.388614,-2.280188 1.388614,-2.280188 h 1.851486"
   style="fill:none;stroke-width:1.02227"
   id="path1" />
<path
   d="m 4.609375,5.859375 c -0.2289692,0 -0.4156333,0.1078993 -0.5585938,0.3242187 -0.1429604,0.2143707 -0.2148437,0.4654761 -0.2148437,0.7519532 0,0.1812406 0.029777,0.3499535 0.087891,0.5058593 0.058114,0.1559059 0.1363721,0.2775331 0.2363281,0.3632813 0.099956,0.085748 0.2480964,0.1583365 0.4433594,0.21875 0.161557,0.050669 0.2660088,0.089908 0.3125,0.1191406 0.070899,0.042874 0.1209622,0.097803 0.1523438,0.1640625 0.031381,0.064311 0.046875,0.132976 0.046875,0.2070313 0,0.1110829 -0.032569,0.2052459 -0.097656,0.28125 -0.1022806,0.1247247 -0.2333457,0.1875 -0.3925781,0.1875 -0.1022807,0 -0.1952413,-0.031388 -0.28125,-0.09375 C 4.2577413,8.8263095 4.1977686,8.7654917 4.1640625,8.7050781 4.1477906,8.6738969 4.1322971,8.6150451 4.1171875,8.5292969 c -0.01511,-0.087697 -0.037349,-0.1504724 -0.066406,-0.1875 -0.027895,-0.037028 -0.063627,-0.054687 -0.1054687,-0.054687 -0.054627,0 -0.099106,0.029434 -0.1328125,0.091797 C 3.7799562,8.4393198 3.7636719,8.543287 3.7636719,8.6875 v 0.4023438 c 0,0.1422641 0.016284,0.2442782 0.048828,0.3066406 0.033706,0.060413 0.078185,0.091797 0.1328125,0.091797 0.027895,0 0.051716,-0.0098 0.070312,-0.027344 0.019759,-0.017539 0.04479,-0.056778 0.076172,-0.1191406 0.088333,0.079902 0.1804551,0.1387579 0.2734375,0.1777344 0.094145,0.040925 0.1902687,0.0625 0.2890625,0.0625 0.2557016,0 0.4658156,-0.1177037 0.6308593,-0.3515625 0.124364,-0.177343 0.1855469,-0.4147164 0.1855469,-0.7109375 0,-0.2124218 -0.032569,-0.3948711 -0.097656,-0.5488282 C 5.3079592,7.8167461 5.2277001,7.7029659 5.1289062,7.6308594 5.0312747,7.5587529 4.8887184,7.4940073 4.7050781,7.4335937 4.5226001,7.3731802 4.4125644,7.3280648 4.3730469,7.3007812 4.3137706,7.2618048 4.2677097,7.2088338 4.2363281,7.140625 4.2061088,7.0704673 4.1914062,6.9978834 4.1914062,6.9238281 c 0,-0.1091341 0.036942,-0.21311 0.1113282,-0.3125 0.075548,-0.1013388 0.1776275,-0.1523437 0.3066406,-0.1523437 0.088333,0 0.1669628,0.025502 0.234375,0.076172 0.067412,0.050669 0.1186376,0.1134448 0.1523437,0.1875 0.019759,0.042874 0.036043,0.1135007 0.048828,0.2128907 0.012785,0.09939 0.03107,0.1660887 0.056641,0.1992187 0.032544,0.044823 0.071068,0.066406 0.1152344,0.066406 0.052303,0 0.094409,-0.02943 0.1269531,-0.089844 0.033706,-0.062362 0.050781,-0.1663339 0.050781,-0.3105469 V 6.3515625 c 10e-8,-0.1422641 -0.017075,-0.244274 -0.050781,-0.3046875 -0.032544,-0.062362 -0.07465,-0.09375 -0.1269531,-0.09375 -0.046491,0 -0.092181,0.03923 -0.1386719,0.1152344 C 5.0141996,5.9982017 4.9423163,5.9452394 4.8632812,5.9121094 4.7854085,5.8770305 4.7011951,5.859375 4.609375,5.859375 Z m 2.1503906,0.9003906 c -0.1615569,0 -0.3160719,0.066699 -0.4648437,0.1992188 -0.1476096,0.13252 -0.2608087,0.314965 -0.3398438,0.546875 -0.079035,0.2299612 -0.1191406,0.4653728 -0.1191406,0.7050781 0,0.2358077 0.039315,0.4614149 0.1171875,0.6777344 0.077873,0.2163194 0.1910719,0.3869983 0.3398437,0.5136719 0.1487719,0.1247247 0.3040777,0.1875 0.4667969,0.1875 0.1638815,-1e-7 0.320769,-0.06278 0.4707031,-0.1894532 C 7.3815652,9.2717683 7.4947643,9.0991362 7.5703125,8.8847656 7.647023,8.6684462 7.6855469,8.4467581 7.6855469,8.2167969 7.6855469,7.9751427 7.647023,7.7397311 7.5703125,7.5117187 7.493602,7.2817576 7.379612,7.0993126 7.2285156,6.9648437 7.0785815,6.8284261 6.9224848,6.7597656 6.7597656,6.7597656 Z m 4.8066404,0 c -0.07555,0 -0.156969,0.031383 -0.24414,0.091797 C 11.236257,6.911976 11.118684,7.03165 10.96875,7.2128906 V 6.8398437 h -0.486328 c -0.08601,10e-8 -0.148354,0.027468 -0.185547,0.083984 -0.03603,0.054567 -0.05469,0.1251936 -0.05469,0.2128906 0,0.089646 0.01866,0.1641873 0.05469,0.2207032 0.03719,0.054567 0.09954,0.082031 0.185547,0.082031 h 0.128906 v 1.4550782 h -0.21289 c -0.08601,0 -0.148354,0.027468 -0.185547,0.083984 -0.03603,0.054567 -0.05274,0.1271467 -0.05274,0.2148438 0,0.089646 0.0167,0.1622341 0.05274,0.21875 0.03719,0.054567 0.09954,0.082031 0.185547,0.082031 h 1.078125 c 0.08601,0 0.147563,-0.027464 0.183593,-0.082031 0.03719,-0.056516 0.05664,-0.1290998 0.05664,-0.2167969 0,-0.089646 -0.01945,-0.1622298 -0.05664,-0.2167969 -0.03603,-0.056516 -0.09759,-0.083984 -0.183593,-0.083984 H 10.96875 V 7.9902344 c 0.148772,-0.210473 0.2723,-0.3674198 0.371094,-0.4726563 0.09996,-0.1052365 0.174631,-0.1582031 0.224609,-0.1582031 0.03835,0 0.08204,0.037273 0.13086,0.1113281 0.04881,0.074055 0.0945,0.1113282 0.138671,0.1113281 0.04998,0 0.09404,-0.029426 0.128907,-0.087891 0.03603,-0.060414 0.05273,-0.1330017 0.05273,-0.21875 0,-0.1013388 -0.03694,-0.2013869 -0.111328,-0.2988281 -0.109254,-0.144213 -0.221663,-0.2167969 -0.337891,-0.2167969 z m 1.664063,0 c -0.273136,0 -0.49437,0.1412444 -0.664063,0.421875 C 12.396713,7.4603224 12.3125,7.813442 12.3125,8.2402344 c 0,0.4501782 0.105243,0.8033064 0.314453,1.0625 0.154583,0.1929335 0.370653,0.2910156 0.648438,0.2910156 0.309166,0 0.54273,-0.090235 0.703125,-0.2675781 0.108092,-0.1188783 0.162109,-0.2444331 0.162109,-0.3769531 0,-0.081851 -0.0167,-0.1524771 -0.05273,-0.2128907 -0.03487,-0.060413 -0.07814,-0.089844 -0.126953,-0.089844 -0.04068,0 -0.08479,0.037277 -0.134766,0.1132812 -0.04998,0.074055 -0.102414,0.127022 -0.158203,0.1582032 -0.09414,0.050669 -0.216463,0.076172 -0.365235,0.076172 -0.226644,0 -0.388696,-0.068656 -0.486328,-0.203125 -0.09763,-0.1364176 -0.146484,-0.3208286 -0.146484,-0.5546875 0,-0.2533471 0.05123,-0.4632562 0.152344,-0.6289062 0.10228,-0.16565 0.237719,-0.2480469 0.40625,-0.2480469 0.146447,0 0.26523,0.047081 0.359375,0.140625 0.05346,0.052618 0.08761,0.1330534 0.101562,0.2421875 0.01395,0.1071853 0.03419,0.1778118 0.05859,0.2128906 0.03371,0.046772 0.07423,0.070312 0.123047,0.070312 0.05347,0 0.09636,-0.02943 0.128906,-0.089844 0.03371,-0.060414 0.05078,-0.1624277 0.05078,-0.3066407 V 7.2421875 c 0,-0.1422641 -0.01708,-0.2423208 -0.05078,-0.3027344 -0.03254,-0.062362 -0.07386,-0.09375 -0.125,-0.09375 -0.04533,0 -0.08981,0.033354 -0.132812,0.1015625 -0.07206,-0.062362 -0.149529,-0.1094438 -0.234375,-0.140625 -0.08485,-0.031181 -0.17855,-0.046875 -0.277344,-0.046875 z m 2.060547,0 c -0.241755,0 -0.456614,0.1333975 -0.642578,0.3984375 -0.184803,0.2630912 -0.277344,0.6044447 -0.277344,1.0253907 0,0.3956112 0.085,0.7291135 0.255859,1 0.172018,0.2708864 0.401579,0.4062499 0.6875,0.40625 0.166206,0 0.339378,-0.031392 0.519531,-0.095703 0.180154,-0.06626 0.293353,-0.1368779 0.339844,-0.2089843 0.03487,-0.054567 0.05273,-0.1193127 0.05273,-0.1972657 0,-0.085748 -0.01628,-0.1583278 -0.04883,-0.2148437 -0.03254,-0.056516 -0.07344,-0.083984 -0.121093,-0.083984 -0.03487,0 -0.09684,0.019617 -0.1875,0.058594 -0.219671,0.095492 -0.394844,0.1425781 -0.527344,0.1425781 -0.161557,0 -0.291412,-0.047086 -0.386719,-0.1425781 -0.09415,-0.095492 -0.160073,-0.2210473 -0.197265,-0.3769532 h 1.466796 V 8.2167969 c 0,-0.1948824 -0.01749,-0.3675144 -0.05469,-0.515625 -0.05463,-0.2124218 -0.1253,-0.3909433 -0.208984,-0.5351563 -0.05928,-0.09939 -0.149445,-0.1915955 -0.271485,-0.2773437 -0.120877,-0.085748 -0.253152,-0.1289063 -0.398437,-0.1289063 z m -7.1718754,0.080078 c -0.086009,10e-8 -0.1464008,0.027468 -0.1835937,0.083984 -0.036031,0.054567 -0.054687,0.1251936 -0.054687,0.2128906 0,0.089646 0.018657,0.1641873 0.054687,0.2207032 0.037193,0.054567 0.097585,0.082031 0.1835937,0.082031 h 0.0625 v 1.2890625 c 0,0.1578547 0.016704,0.2892948 0.052734,0.3945313 0.049978,0.1461617 0.1190694,0.2599506 0.2050781,0.34375 0.086009,0.081851 0.1872972,0.1230468 0.3046875,0.1230469 0.083684,0 0.1726426,-0.019617 0.265625,-0.058594 0.092982,-0.038977 0.188735,-0.097828 0.2910157,-0.1757812 v 0.1386718 h 0.3417968 c 0.086009,0 0.14561,-0.027464 0.1816407,-0.082031 0.037193,-0.056516 0.056641,-0.1290998 0.056641,-0.2167969 0,-0.087697 -0.018657,-0.160281 -0.054687,-0.2167969 -0.036031,-0.056516 -0.092421,-0.083984 -0.1679688,-0.083984 V 6.8398437 H 9.171875 c -0.086009,10e-8 -0.1464008,0.027468 -0.1835937,0.083984 -0.036031,0.054567 -0.054687,0.1251936 -0.054687,0.2128906 -1e-7,0.089646 0.018657,0.1641873 0.054687,0.2207032 0.037193,0.054567 0.097585,0.082031 0.1835937,0.082031 H 9.3007813 V 8.6601563 C 9.1787418,8.784881 9.0758717,8.8712013 8.9921875,8.9199219 c -0.082522,0.046772 -0.1584074,0.070312 -0.2304687,0.070312 -0.075548,0 -0.132729,-0.029426 -0.1699219,-0.087891 C 8.5557662,8.8419302 8.5371094,8.7497204 8.5371094,8.6230469 V 6.8398437 Z M 6.7597656,7.359375 c 0.1836403,0 0.3325714,0.1098568 0.4453125,0.328125 0.082522,0.1617524 0.1230469,0.3383165 0.1230469,0.53125 0,0.1890359 -0.054808,0.3655957 -0.1640625,0.5292969 -0.1092543,0.1617523 -0.2439022,0.2421875 -0.4042969,0.2421875 -0.1592324,0 -0.2930894,-0.080435 -0.4023437,-0.2421875 C 6.2481675,8.5843457 6.1933594,8.4097433 6.1933594,8.2226563 c 0,-0.2280124 0.054017,-0.4300704 0.1621093,-0.6035157 C 6.4635608,7.4456953 6.5982087,7.359375 6.7597656,7.359375 Z m 8.5390624,0 c 0.12204,0 0.228073,0.043158 0.316406,0.1289062 0.08833,0.083799 0.158264,0.2113161 0.212891,0.3828125 h -1.058594 c 0.05579,-0.1714964 0.126511,-0.299013 0.214844,-0.3828125 0.08833,-0.085748 0.193576,-0.1289062 0.314453,-0.1289062 z"
   style="font-size:4.62342px;fill:#263238;stroke-width:0.488927;stroke-linecap:round;stroke-linejoin:round"
   id="path2" /></svg>
