<?xml version="1.0" encoding="UTF-8" standalone="no"?>
<svg
   viewBox="0 0 24 24"
   version="1.1"
   enable-background="new 0 0 24.00 24.00"
   xml:space="preserve"
   id="svg1"
   xmlns="http://www.w3.org/2000/svg"
   xmlns:svg="http://www.w3.org/2000/svg"><defs
   id="defs1" />
	<path
   stroke="#263238"
   stroke-linecap="round"
   stroke-linejoin="round"
   stroke-width="1"
   d="M 8.1350243,20.664719 H 2.511135 V 1.511135 h 10.298892 l 5.901613,5.8144809 v 1.4365189 m -2.314357,2.3257922 h 1.851485 c 0,0 1.388615,0 1.388615,2.280188 v 1.368114 c 0,0 0,1.368113 1.851487,1.368113 v 1.368113 c -1.851487,0 -1.851487,1.368113 -1.851487,1.368113 v 1.368113 c 0,2.280189 -1.388615,2.280189 -1.388615,2.280189 h -1.851485 m -2.31436,0 h -1.851486 c 0,0 -1.388614,0 -1.388614,-2.280189 v -1.368113 c 0,0 0,-1.368113 -1.851486,-1.368113 v -1.368113 c 1.851486,0 1.851486,-1.368113 1.851486,-1.368113 v -1.368114 c 0,-2.280188 1.388614,-2.280188 1.388614,-2.280188 h 1.851486"
   style="fill:none;stroke-width:1.02227"
   id="path1" />
<path
   d="m 6.6039208,6.1986915 h -0.957645 c -0.024671,0 -0.044788,0.019782 -0.044788,0.044117 v 0.4613049 c 0,0.024334 0.020022,0.044136 0.044788,0.044136 h 0.3735768 v 0.5731293 c 0,0 -0.083881,0.028177 -0.315799,0.028177 -0.2736021,0 -0.6558231,-0.098499 -0.6558231,-0.9265598 0,-0.828248 0.3980011,-0.937221 0.7716536,-0.937221 0.3234376,0 0.4627816,0.056112 0.5514362,0.083139 0.027898,0.00841 0.053612,-0.018913 0.053612,-0.043276 l 0.1068355,-0.445711 c 0,-0.011387 -0.00379,-0.025111 -0.017079,-0.034442 -0.035963,-0.025298 -0.2556681,-0.1464037 -0.8106244,-0.1464037 -0.6393125,0 -1.2950881,0.267978 -1.2950881,1.5561977 0,1.2882674 0.7508162,1.480238 1.3835053,1.480238 0.5238709,0 0.8416626,-0.2205638 0.8416626,-0.2205638 0.013095,-0.00711 0.014518,-0.025158 0.014518,-0.033432 V 6.2428084 c 0,-0.024334 -0.020022,-0.044117 -0.044693,-0.044117 z M 11.536632,5.0603344 c 0,-0.02455 -0.01974,-0.044351 -0.04441,-0.044351 H 10.95301 c -0.02467,0 -0.04469,0.019801 -0.04469,0.044351 l 1.33e-4,1.026672 h -0.840485 v -1.026672 c 0,-0.02455 -0.01983,-0.044351 -0.0445,-0.044351 H 9.4842666 c -0.024577,0 -0.044503,0.019801 -0.044503,0.044351 v 2.7799138 c 0,0.024521 0.020022,0.044491 0.044503,0.044491 h 0.5391954 c 0.02467,0 0.0445,-0.019969 0.0445,-0.044491 V 6.6511814 h 0.840495 l -0.0019,1.1890668 c 0,0.024521 0.02002,0.044491 0.04469,0.044491 h 0.54051 c 0.02467,0 0.04441,-0.019969 0.0445,-0.044491 z m -3.9169185,0.371667 c 0,-0.1912927 -0.1556743,-0.3458793 -0.3477194,-0.3458793 -0.1918554,0 -0.3476438,0.1545866 -0.3476438,0.3458793 0,0.1910824 0.1557884,0.3460888 0.3476438,0.3460888 0.1920451,0 0.3477194,-0.1550064 0.3477194,-0.3460888 z M 7.5769188,7.2552888 V 5.9720716 c 0,-0.024363 -0.019926,-0.044285 -0.044597,-0.044285 H 6.994815 c -0.024671,0 -0.046686,0.025064 -0.046686,0.049427 V 7.815674 c 0,0.054027 0.03416,0.070097 0.078377,0.070097 h 0.4842836 c 0.053138,0 0.066138,-0.025691 0.066138,-0.070958 z M 13.597482,5.9277903 h -0.535087 c -0.02457,0 -0.0445,0.019922 -0.0445,0.044444 v 1.3630819 c 0,0 -0.13593,0.097984 -0.328876,0.097984 -0.192927,0 -0.244139,-0.086252 -0.244139,-0.2723736 V 5.9722338 c 0,-0.024521 -0.01993,-0.044444 -0.0445,-0.044444 h -0.543056 c -0.02448,0 -0.04459,0.019922 -0.04459,0.044444 v 1.2787046 c 0,0.5528359 0.312743,0.6880874 0.742968,0.6880874 0.352939,0 0.637511,-0.1921107 0.637511,-0.1921107 0,0 0.01356,0.1012338 0.01965,0.113251 0.0057,0.011966 0.02212,0.024054 0.03938,0.024054 l 0.345481,-0.00149 c 0.02448,0 0.04459,-0.019969 0.04459,-0.044378 l -1.51e-4,-1.8661189 c 0,-0.024521 -0.02003,-0.044444 -0.04468,-0.044444 z m 1.23285,1.5065631 C 14.64474,7.4287434 14.51885,7.3458104 14.51885,7.3458104 V 6.4654727 c 0,0 0.1242,-0.075005 0.276572,-0.08842 0.192691,-0.016997 0.37835,0.040349 0.37835,0.4932168 0,0.4775541 -0.08379,0.5717972 -0.34344,0.5640816 z m 0.211051,-1.5662747 c -0.303909,0 -0.510624,0.1335921 -0.510624,0.1335921 V 5.0603344 c 0,-0.02455 -0.01993,-0.044351 -0.0445,-0.044351 h -0.540733 c -0.02457,0 -0.04459,0.019801 -0.04459,0.044351 v 2.7799138 c 0,0.024521 0.02003,0.044491 0.04459,0.044491 h 0.375181 c 0.01689,0 0.0297,-0.0086 0.03909,-0.023615 0.0095,-0.014939 0.02277,-0.128168 0.02277,-0.128168 0,0 0.221118,0.2064423 0.639692,0.2064423 0.491399,0 0.773218,-0.2455801 0.773218,-1.102468 0,-0.8568888 -0.450085,-0.9688544 -0.754213,-0.9688544 z M 9.1288325,5.9230214 H 8.72436 l -6.168e-4,-0.526464 c 0,-0.019922 -0.010437,-0.029878 -0.033781,-0.029878 H 8.1387547 c -0.021445,0 -0.032926,0.00926 -0.032926,0.02957 v 0.5440452 c 0,0 -0.2762114,0.065695 -0.294895,0.071004 -0.018599,0.00533 -0.032262,0.022213 -0.032262,0.042368 v 0.3418809 c 0,0.024596 0.019926,0.044424 0.044597,0.044424 H 8.105866 v 0.8224499 c 0,0.6108881 0.4349224,0.6709035 0.7284225,0.6709035 0.1340967,0 0.2945059,-0.042434 0.3209894,-0.052063 0.016037,-0.00579 0.025335,-0.022138 0.025335,-0.039863 l 4.46e-4,-0.3760852 c 0,-0.024521 -0.021065,-0.044369 -0.044693,-0.044369 -0.023532,0 -0.083881,0.00944 -0.1459388,0.00944 -0.1986684,0 -0.2659919,-0.091019 -0.2659919,-0.2088273 0,-0.1177169 -2.84e-5,-0.7815826 -2.84e-5,-0.7815826 h 0.4045004 c 0.024671,0 0.044597,-0.019828 0.044597,-0.044424 V 5.9673299 c 0,-0.024521 -0.019926,-0.044304 -0.044597,-0.044304 z"
   fill="#11110f"
   id="path1-7"
   style="stroke-width:1.02227;stroke-dasharray:none;fill:#263238;fill-opacity:1" /></svg>
