<?xml version="1.0" encoding="UTF-8" standalone="no"?>
<svg
   version="1.1"
   id="Layer_2"
   x="0px"
   y="0px"
   viewBox="0 0 128 128"
   enable-background="new 0 0 32 32"
   xml:space="preserve"
   width="128"
   height="128"
   xmlns="http://www.w3.org/2000/svg"
   xmlns:svg="http://www.w3.org/2000/svg">
<g
   id="g6">
	<circle
   fill="#202225"
   cx="59.599998"
   cy="59.599998"
   id="circle2"
   style="stroke-width:4"
   r="4.4000001" />
	<path
   fill="#202225"
   d="M 64,0 C 36,0 12.4,18 3.6,42.8 c 2.8,0 4.8,-0.4 6,-0.8 4.8,-2 10,-3.2 15.6,-4 1.2,-4 3.2,-7.2 7.2,-7.2 4,0.4 4,2.8 2.8,6.4 29.6,-0.8 65.2,12.8 78.4,42.4 0.8,2 -3.6,3.2 -5.6,4.8 C 106,86 94,74.8 93.2,75.6 92.4,76.8 64.4,89.6 38.4,90.4 25.2,90.8 18,96 12.4,102 24,117.6 42.8,128 64,128 99.2,128 128,99.2 128,64 128,28.8 99.2,0 64,0 Z"
   id="path4"
   style="stroke-width:4" />
</g>
</svg>
