<svg width="24" height="24" viewBox="0 0 24 24" fill="none" xmlns="http://www.w3.org/2000/svg">
<path d="M7.803 2.63787C8.28808 2.55203 8.83937 2.5028 9.41665 2.50012C9.99393 2.49743 10.5958 2.5413 11.1759 2.63787C12.0923 2.7906 12.7308 3.47805 12.7308 4.3932V6.26923V7.88462C12.7308 8.82753 12.0543 9.5 11.1154 9.5H7.88462C6.73943 9.5 5.73077 10.5393 5.73077 11.6538L5.69345 12.9652H4.53241C3.55101 12.9652 2.97776 12.2529 2.73772 11.2532C2.41392 9.91011 2.42767 9.10747 2.73772 7.82121C3.00652 6.69906 3.86586 6.10917 4.84727 6.10917H6.11457V4.3932C6.11457 3.41873 6.37402 2.89032 7.803 2.63787Z" fill="white"/>
<path d="M6.11457 6.10917V4.3932C6.11457 3.41873 6.37402 2.89032 7.803 2.63787C8.28808 2.55203 8.83937 2.5028 9.41665 2.50012C9.99393 2.49743 10.5958 2.5413 11.1759 2.63787C12.0923 2.7906 12.7308 3.47805 12.7308 4.3932V6.26923V7.88462C12.7308 8.82753 12.0543 9.5 11.1154 9.5H7.88462C6.73943 9.5 5.73077 10.5393 5.73077 11.6538L5.69345 12.9652H4.53241C3.55101 12.9652 2.97776 12.2529 2.73772 11.2532C2.41392 9.91011 2.42767 9.10747 2.73772 7.82121C3.00652 6.69906 3.86586 6.10917 4.84727 6.10917H6.11457ZM6.11457 6.10917H8.96154" stroke="#28292C" stroke-linecap="round" stroke-linejoin="round"/>
<path d="M12.7306 7.34617V6.10921H14.5527C15.5353 6.10921 15.9986 6.84425 16.2411 7.82125C16.5787 9.17819 16.5937 10.1954 16.2411 11.2532C15.8998 12.2807 15.5341 12.9652 14.5527 12.9652H12.8643V14.6812C12.8643 15.6557 12.026 16.151 11.1758 16.3972C9.89689 16.7683 8.87185 16.7115 7.80293 16.3972C6.91028 16.1346 5.73071 15.5964 5.73071 14.6812V12.9652V11.6539C5.73071 10.5769 6.80764 9.50002 7.88456 9.50002H11.1153C12.7306 9.50002 12.7306 8.4232 12.7306 7.34633V7.34617Z" fill="white"/>
<path d="M12.8643 12.9652V14.6812C12.8643 15.6557 12.026 16.151 11.1758 16.3972C9.89689 16.7683 8.87185 16.7115 7.80293 16.3972C6.91028 16.1346 5.73071 15.5964 5.73071 14.6812V12.9652V11.6539C5.73071 10.5769 6.80764 9.50002 7.88456 9.50002H11.1153C12.7307 9.50002 12.7306 8.4231 12.7306 7.34617V6.10921H14.5527C15.5353 6.10921 15.9986 6.84425 16.2411 7.82125C16.5787 9.17819 16.5937 10.1954 16.2411 11.2532C15.8998 12.2807 15.5341 12.9652 14.5527 12.9652H12.8643ZM12.8643 12.9652H10.0383" stroke="#28292C" stroke-linecap="round" stroke-linejoin="round"/>
<circle cx="8.42298" cy="4.1154" r="0.538462" fill="#28292C"/>
<circle cx="10.577" cy="14.8846" r="0.538462" fill="#28292C"/>
<path d="M21.5 18.5L18.5 21.5M18.5 21.5L15.5 18.5M18.5 21.5V13.5" stroke="#28292C" stroke-linecap="round" stroke-linejoin="round"/>
</svg>
