<svg width="24" height="24" viewBox="0 0 24 24" fill="none" xmlns="http://www.w3.org/2000/svg">
<rect x="2.5" y="2.5" width="8" height="8" rx="1" fill="white" stroke="#28292C"/>
<rect x="13.5" y="2.5" width="8" height="8" rx="4" fill="white" stroke="#28292C"/>
<path d="M6 13.5L2 21.5H10L6 13.5Z" fill="white" stroke="#28292C" stroke-linejoin="round"/>
<path d="M11.7071 21.3995L12.4142 19.2782L19.0139 12.6785L20.4281 14.0927L13.8284 20.6924C13.6399 20.8809 12.2571 21.1638 11.7071 21.3995Z" fill="white"/>
<path d="M20.8995 13.6213C20.7516 13.7693 20.5938 13.927 20.4281 14.0927M19.4853 12.2071L19.0139 12.6785M19.0139 12.6785L12.4142 19.2782L11.7071 21.3995C12.2571 21.1638 13.6399 20.8809 13.8284 20.6924C14.0047 20.5161 18.0418 16.4791 20.4281 14.0927M19.0139 12.6785L20.4281 14.0927" stroke="#28292C" stroke-linejoin="round"/>
<path d="M20.8995 13.6213C21.8423 12.6785 20.4281 11.2643 19.4853 12.2071L19.0139 12.6785L20.4281 14.0927L20.8995 13.6213Z" fill="white" stroke="#28292C" stroke-linejoin="round"/>
</svg>
