<svg width="24" height="24" viewBox="0 0 24 24" fill="none" xmlns="http://www.w3.org/2000/svg">
<path d="M6.17653 6.17647C5.66061 6.95034 4.33829 7.27941 3.23535 6.91176V8.38235L9.853 15L15.0001 9.85294L8.38241 3.23529H5.44123C6.54418 3.60294 6.91182 5.07353 6.17653 6.17647Z" fill="white"/>
<path d="M5.44123 3.23529H8.38241L15.0001 9.85294L9.853 15L3.23535 8.38235V6.91176" stroke="#28292C" stroke-miterlimit="10" stroke-linecap="round" stroke-linejoin="round"/>
<path d="M6.91187 5.44116L12.0589 10.5882" stroke="#28292C" stroke-miterlimit="10" stroke-linecap="round" stroke-linejoin="round"/>
<path d="M5.44116 6.91179L10.5882 12.0588" stroke="#28292C" stroke-miterlimit="10" stroke-linecap="round" stroke-linejoin="round"/>
<path d="M5.44118 4.70588C5.22059 5.14706 4.48529 5.44118 3.97059 5.44118C3.16176 5.44118 2.5 4.77941 2.5 3.97059C2.5 3.16176 3.16176 2.5 3.97059 2.5" stroke="#28292C" stroke-miterlimit="10" stroke-linecap="round" stroke-linejoin="round"/>
<path d="M18.5 15.5L21.5 18.5M21.5 18.5L18.5 21.5M21.5 18.5H13.5" stroke="#28292C" stroke-linecap="round" stroke-linejoin="round"/>
</svg>
