<svg width="24" height="24" viewBox="0 0 24 24" fill="none" xmlns="http://www.w3.org/2000/svg">
<g clip-path="url(#clip0_204_130)">
<path d="M3 11H4M12 2V3M20 11H21M5.6 4.6L6.3 5.3M18.4 4.6L17.7 5.3" stroke="#28292C" stroke-linecap="round" stroke-linejoin="round"/>
<path d="M7.22743 12.4908C7.54033 13.4925 8.16047 14.3704 9 15C9.39043 15.3865 9.6844 15.8594 9.85813 16.3806C10.0319 16.9018 10.0805 17.4566 10 18H14C13.9195 17.4566 13.9681 16.9018 14.1419 16.3806C14.3156 15.8594 14.6096 15.3865 15 15C15.8395 14.3704 16.4597 13.4925 16.7726 12.4908C17.0855 11.4892 17.0753 10.4144 16.7434 9.41886C16.4116 8.4233 15.7749 7.55739 14.9236 6.94379C14.0722 6.33019 13.0494 6 12 6C10.9506 6 9.92778 6.33019 9.07645 6.94379C8.22512 7.55739 7.58844 8.4233 7.25658 9.41886C6.92473 10.4144 6.91453 11.4892 7.22743 12.4908Z" fill="white"/>
<path d="M14 18C13.9195 17.4566 13.9681 16.9018 14.1419 16.3806C14.3156 15.8594 14.6096 15.3865 15 15C15.8395 14.3704 16.4597 13.4925 16.7726 12.4908C17.0855 11.4892 17.0753 10.4144 16.7434 9.41886C16.4116 8.4233 15.7749 7.55739 14.9236 6.94379C14.0722 6.33019 13.0494 6 12 6C10.9506 6 9.92778 6.33019 9.07645 6.94379C8.22512 7.55739 7.58844 8.4233 7.25658 9.41886C6.92473 10.4144 6.91453 11.4892 7.22743 12.4908C7.54033 13.4925 8.16047 14.3704 9 15C9.39043 15.3865 9.6844 15.8594 9.85813 16.3806C10.0319 16.9018 10.0805 17.4566 10 18" stroke="#28292C" stroke-linecap="round" stroke-linejoin="round"/>
<path d="M10.5 13C10.5 13 11.3825 13.5 12 13.5C12.6175 13.5 13.5 13 13.5 13" stroke="#28292C" stroke-linecap="round" stroke-linejoin="round"/>
<path d="M10 19.5C10 19.5 11.0113 20 12 20C12.9887 20 14 19.5 14 19.5" stroke="#28292C" stroke-linecap="round" stroke-linejoin="round"/>
<path d="M10 21.5C10 21.5 11.0113 22 12 22C12.9887 22 14 21.5 14 21.5" stroke="#28292C" stroke-linecap="round" stroke-linejoin="round"/>
<path d="M12 13.5V18" stroke="#28292C" stroke-linecap="round" stroke-linejoin="round"/>
</g>
<defs>
<clipPath id="clip0_204_130">
<rect width="24" height="24" fill="white"/>
</clipPath>
</defs>
</svg>
